<svg width="24" height="24" viewBox="0 0 24 24" fill="none" xmlns="http://www.w3.org/2000/svg">
<path d="M12 24C18.624 24 24 18.624 24 12C24 5.376 18.624 0 12 0C5.376 0 0 5.376 0 12C0 18.624 5.376 24 12 24ZM16.283 11.143H18.001V9.426H19.719V11.144H21.422V12.862H19.719V14.58H18.001V12.862H16.283V11.143ZM12.596 7.562L10.97 9.14C8.89 7.107 4.843 8.588 4.843 11.995C4.843 16.616 11.402 16.932 11.971 13.195H8.579V11.134H14.236C14.878 14.49 12.711 18 8.579 18V18.001C5.25 18.001 2.578 15.315 2.578 12C2.579 6.662 8.911 4.139 12.596 7.562Z" fill="#EF4232"/>
</svg>
