<svg width="50" height="16" viewBox="0 0 50 16" fill="none" xmlns="http://www.w3.org/2000/svg">
<path d="M18.3331 15.1824L20.8728 0.896729H24.8411L22.3807 15.1824H18.3331Z" fill="#898A8D"/>
<path d="M18.3331 15.1824L21.5871 0.896729H24.8411L22.3807 15.1824H18.3331Z" fill="#898A8D"/>
<path d="M36.7461 1.05557C35.9524 0.738115 34.6826 0.420654 33.0953 0.420654C29.127 0.420654 26.2699 2.40478 26.2699 5.26192C26.2699 7.40478 28.254 8.51589 29.8413 9.23018C31.4286 9.94446 31.9048 10.4207 31.9048 11.0556C31.9048 12.008 30.635 12.4841 29.5238 12.4841C27.9365 12.4841 27.0635 12.2461 25.7143 11.6905L25.1588 11.4524L24.6032 14.7064C25.5556 15.1032 27.3016 15.5 29.127 15.5C33.3334 15.5 36.1111 13.5159 36.1111 10.5C36.1111 8.83335 35.0794 7.56351 32.6984 6.53177C31.2699 5.81748 30.3969 5.42065 30.3969 4.70637C30.3969 4.07145 31.1111 3.43653 32.6984 3.43653C34.0477 3.43653 35 3.67462 35.7143 3.99208L36.1111 4.15081L36.7461 1.05557V1.05557Z" fill="#898A8D"/>
<path d="M36.7461 1.05557C35.9524 0.738115 34.6826 0.420654 33.0953 0.420654C29.127 0.420654 26.9842 2.40478 26.9842 5.26192C26.9842 7.40478 28.254 8.51589 29.8413 9.23018C31.4286 9.94446 31.9048 10.4207 31.9048 11.0556C31.9048 12.008 30.635 12.4841 29.5238 12.4841C27.9365 12.4841 27.0635 12.2461 25.7143 11.6905L25.1588 11.4524L24.6032 14.7064C25.5556 15.1032 27.3016 15.5 29.127 15.5C33.3334 15.5 36.1111 13.5159 36.1111 10.5C36.1111 8.83335 35.0794 7.56351 32.6984 6.53177C31.2699 5.81748 30.3969 5.42065 30.3969 4.70637C30.3969 4.07145 31.1111 3.43653 32.6984 3.43653C34.0477 3.43653 35 3.67462 35.7143 3.99208L36.1111 4.15081L36.7461 1.05557V1.05557Z" fill="#898A8D"/>
<path fill-rule="evenodd" clip-rule="evenodd" d="M41.5082 1.92847C41.905 0.976094 42.6193 0.896729 43.5717 0.896729H46.6669L50.0002 15.1824H46.1907L45.7145 12.8015H40.6352L39.8415 15.1824H35.5558L41.5082 1.92847ZM43.3333 6.21419C43.3333 6.21419 41.9841 9.70626 41.746 10.4205V10.4999H45.0793C44.9206 9.70626 44.127 6.13483 44.127 6.13483L43.8889 4.78562C43.6508 5.34118 43.3333 6.21419 43.3333 6.21419Z" fill="#898A8D"/>
<path fill-rule="evenodd" clip-rule="evenodd" d="M42.4605 1.92847C42.8574 0.976094 43.5717 0.896729 44.524 0.896729H46.6669L50.0002 15.1824H46.1907L45.7145 12.8015H40.6352L39.8415 15.1824H35.5558L42.4605 1.92847ZM43.3333 6.21419C43.3333 6.21419 42.0635 9.62689 41.746 10.4205V10.4999H45.0793C44.9206 9.70626 44.127 6.13483 44.127 6.13483L43.8889 4.78562C43.6508 5.34118 43.3333 6.21419 43.3333 6.21419Z" fill="#898A8D"/>
<path d="M11.0316 10.897L10.6348 8.83346C9.92049 6.45251 7.61891 3.83346 5.07922 2.56362L8.65065 15.262H12.9364L19.3649 0.976318H15.0792L11.0316 10.897Z" fill="#898A8D"/>
<path d="M11.0316 10.897L10.6348 8.83346C9.92049 6.45251 7.61891 3.83346 5.07922 2.56362L8.65065 15.262H12.9364L19.3649 0.976318H15.8729L11.0316 10.897Z" fill="#898A8D"/>
<path d="M0 0.896729L0.714286 1.05546C5.79365 2.24594 9.28571 5.26181 10.6349 8.83324L9.20635 2.08721C8.96825 1.13482 8.25397 0.896729 7.38095 0.896729H0V0.896729Z" fill="#898A8D"/>
<path d="M0 0.896729V0.896729C5.07937 2.08721 9.28571 5.18244 10.6349 8.75387L9.28571 3.11895C9.04762 2.16657 8.25397 1.61101 7.38095 1.61101L0 0.896729Z" fill="#898A8D"/>
<path d="M0 0.896729V0.896729C5.07937 2.08721 9.28571 5.18244 10.6349 8.75387L9.68254 5.65863C9.44444 4.70625 9.12698 3.75387 8.01587 3.35705L0 0.896729Z" fill="#898A8D"/>
<path d="M14.9999 10.4206L12.3015 7.72223L11.0316 10.7381L10.7142 8.75397C9.9999 6.37302 7.69831 3.75397 5.15863 2.48413L8.73006 15.1825H13.0158L14.9999 10.4206Z" fill="#898A8D"/>
<path d="M22.3807 15.1825L18.9681 11.6904L18.3331 15.1825H22.3807Z" fill="#898A8D"/>
<path d="M31.508 10.262V10.262C31.8255 10.5794 31.9842 10.8175 31.9049 11.135C31.9049 12.0874 30.635 12.5636 29.5239 12.5636C27.9366 12.5636 27.0636 12.3255 25.7144 11.7699L25.1588 11.5318L24.6033 14.7858C25.5557 15.1826 27.3017 15.5794 29.1271 15.5794C31.6668 15.5794 33.7303 14.8651 34.9207 13.5953L31.508 10.262Z" fill="#898A8D"/>
<path d="M36.1108 15.1825H39.8409L40.6346 12.8015H45.714L46.1901 15.1825H49.9997L48.6505 9.38882L43.8886 4.78564L44.1266 6.05549C44.1266 6.05549 44.9203 9.62691 45.079 10.4206H41.7457C42.0632 9.62691 43.333 6.21422 43.333 6.21422C43.333 6.21422 43.6505 5.3412 43.8886 4.78564" fill="#898A8D"/>
</svg>
