<svg width="50" height="30" viewBox="0 0 50 30" fill="none" xmlns="http://www.w3.org/2000/svg">
<path d="M50.0001 15C50.0001 23.254 43.3335 30 35.0001 30C26.7462 30 20.0001 23.254 20.0001 15V15C20.0001 6.74603 26.6668 0 34.9208 0C43.3335 0 50.0001 6.74603 50.0001 15V15Z" fill="#FFB600"/>
<path d="M35.0001 0C43.2541 0 50.0001 6.74603 50.0001 15V15C50.0001 23.254 43.3335 30 35.0001 30C26.7462 30 20.0001 23.254 20.0001 15" fill="#F7981D"/>
<path d="M34.9998 0C43.2538 0 49.9998 6.74603 49.9998 15V15C49.9998 23.254 43.3331 30 34.9998 30" fill="#FF8500"/>
<path d="M14.8413 0C6.66667 0.0793651 0 6.74603 0 15C0 23.254 6.66667 30 15 30C18.8889 30 22.381 28.4921 25.0794 26.1111V26.1111V26.1111C25.6349 25.6349 26.1111 25.0794 26.5873 24.5238H23.4921C23.0952 24.0476 22.6984 23.4921 22.381 23.0159H27.6984C28.0159 22.5397 28.3333 21.9841 28.5714 21.4286H21.5079C21.2698 20.9524 21.0317 20.3968 20.873 19.8413H29.127C29.6032 18.3333 29.9206 16.746 29.9206 15.0794C29.9206 13.9683 29.7619 12.9365 29.6032 11.9048H20.3968C20.4762 11.3492 20.6349 10.873 20.7936 10.3175H29.0476C28.8889 9.76191 28.6508 9.20635 28.4127 8.73016H21.4286C21.6667 8.1746 21.9841 7.69841 22.3016 7.14286H27.619C27.3016 6.5873 26.9048 6.03175 26.4286 5.55556H23.4921C23.9683 5 24.4444 4.52381 25 4.04762C22.381 1.5873 18.8095 0.15873 14.9206 0.15873C14.9206 0 14.9206 0 14.8413 0Z" fill="#FF5050"/>
<path d="M0 15C0 23.2539 6.66667 30 15 30C18.8889 30 22.381 28.492 25.0794 26.1111V26.1111V26.1111C25.6349 25.6349 26.1111 25.0793 26.5873 24.5238H23.4921C23.0952 24.0476 22.6984 23.492 22.381 23.0158H27.6984C28.0159 22.5396 28.3333 21.9841 28.5714 21.4285H21.5079C21.2698 20.9523 21.0317 20.3968 20.873 19.8412H29.127C29.6032 18.3333 29.9206 16.746 29.9206 15.0793C29.9206 13.9682 29.7619 12.9365 29.6032 11.9047H20.3968C20.4762 11.3492 20.6349 10.873 20.7936 10.3174H29.0476C28.8889 9.76187 28.6508 9.20631 28.4127 8.73012H21.4286C21.6667 8.17456 21.9841 7.69837 22.3016 7.14282H27.619C27.3016 6.58726 26.9048 6.03171 26.4286 5.55552H23.4921C23.9683 4.99996 24.4444 4.52377 25 4.04758C22.381 1.58726 18.8095 0.158691 14.9206 0.158691H14.8413" fill="#E52836"/>
<path d="M15.0002 30C18.8891 30 22.3812 28.492 25.0796 26.1111V26.1111V26.1111C25.6351 25.6349 26.1113 25.0793 26.5875 24.5238H23.4923C23.0955 24.0476 22.6986 23.492 22.3812 23.0158H27.6986C28.0161 22.5396 28.3336 21.9841 28.5716 21.4285H21.5082C21.2701 20.9523 21.032 20.3968 20.8732 19.8412H29.1272C29.6034 18.3333 29.9209 16.746 29.9209 15.0793C29.9209 13.9682 29.7621 12.9365 29.6034 11.9047H20.397C20.4764 11.3492 20.6351 10.873 20.7939 10.3174H29.0478C28.8891 9.76187 28.651 9.20631 28.4129 8.73012H21.4288C21.6669 8.17456 21.9843 7.69837 22.3018 7.14282H27.6193C27.3018 6.58726 26.905 6.03171 26.4288 5.55552H23.4923C23.9685 4.99996 24.4447 4.52377 25.0002 4.04758C22.3812 1.58726 18.8097 0.158691 14.9209 0.158691H14.8415" fill="#CB2026"/>
<path d="M20.3173 18.8096L20.5554 17.4604C20.4761 17.4604 20.3173 17.5397 20.1586 17.5397C19.603 17.5397 19.5237 17.2223 19.603 17.0635L20.0792 14.2858H20.9523L21.1903 12.7778H20.3967L20.5554 11.8254H18.9681C18.9681 11.8254 18.0157 17.0635 18.0157 17.6985C18.0157 18.6508 18.5713 19.0477 19.2856 19.0477C19.7618 19.0477 20.1586 18.8889 20.3173 18.8096Z" fill="white"/>
<path fill-rule="evenodd" clip-rule="evenodd" d="M23.6508 19.0475C22.381 19.0475 20.873 18.4919 20.873 16.2697C20.873 14.2856 22.0635 12.5395 23.7302 12.6983C25.4762 12.6983 26.0318 13.9681 26.0318 14.9999C26.0318 15.3967 25.7937 16.4284 25.7937 16.4284H22.5397C22.5397 16.4284 22.2223 17.6983 23.9683 17.6983C24.7619 17.6983 25.635 17.3015 25.635 17.3015L25.3175 18.8094C25.3175 18.8094 24.8413 19.0475 23.6508 19.0475ZM24.3673 15.0435C24.3835 14.8431 24.4546 13.9681 23.6506 13.9681C22.7776 13.9681 22.6189 14.9999 22.6189 15.0792H24.3649C24.3649 15.073 24.3659 15.0607 24.3673 15.0435Z" fill="white"/>
<path d="M33.7301 18.8095L34.0476 17.0635C34.0476 17.0635 33.2539 17.4603 32.6984 17.4603C31.5873 17.4603 31.1111 16.5873 31.1111 15.6349C31.1111 13.7301 32.0635 12.6984 33.1746 12.6984C33.9682 12.6984 34.6031 13.1746 34.6031 13.1746L34.8412 11.5079C34.8412 11.5079 33.8889 11.1111 33.0158 11.1111C31.1904 11.1111 29.3651 12.6984 29.3651 15.7143C29.3651 17.6984 30.3174 19.0476 32.2222 19.0476C32.8571 19.0476 33.7301 18.8095 33.7301 18.8095Z" fill="white"/>
<path fill-rule="evenodd" clip-rule="evenodd" d="M9.68252 12.857C9.68252 12.857 10.4762 12.5396 11.5873 12.5396C12.1428 12.5396 13.7301 12.6189 13.7301 14.5237L13.0952 18.8888H11.6666L11.746 18.2538C11.7293 18.2538 11.6949 18.2856 11.6406 18.3357C11.4376 18.5233 10.9561 18.9681 10.0793 18.9681C9.52379 18.9681 8.57141 18.6507 8.57141 17.2221C8.57141 15.3967 10.0793 14.8411 11.4286 14.8411H12.1428C12.1428 14.8411 12.2222 14.7618 12.2222 14.4443C12.2222 13.9681 11.746 13.8888 11.1905 13.8888C10.1587 13.8888 9.44443 14.2062 9.44443 14.2062L9.68252 12.857ZM10.7934 17.6189C11.7458 17.6189 11.9045 16.3491 11.9045 16.111C11.9045 16.111 11.8252 16.111 11.5871 16.0316C10.3966 16.0316 10.1585 16.5872 10.1585 16.984C10.1585 17.2221 10.3172 17.6189 10.7934 17.6189Z" fill="white"/>
<path d="M15.238 18.9681C15.6348 18.9681 17.6189 19.0475 17.6189 16.9046C17.6189 14.9205 15.7142 15.3173 15.7142 14.5237C15.7142 14.1269 16.0316 13.9681 16.5872 13.9681C16.8253 13.9681 17.6983 14.0475 17.6983 14.0475L17.9364 12.6189C17.9364 12.6189 17.3809 12.4602 16.4285 12.4602C15.238 12.4602 14.0475 12.9364 14.0475 14.5237C14.0475 16.3491 16.0316 16.1904 16.0316 16.9046C16.0316 17.3808 15.4761 17.4602 15.0793 17.4602C14.365 17.4602 13.6507 17.2221 13.6507 17.2221L13.4126 18.6507C13.492 18.8094 13.8888 18.9681 15.238 18.9681Z" fill="white"/>
<path fill-rule="evenodd" clip-rule="evenodd" d="M46.5872 13.4126L46.9047 11.2698L48.5713 11.3491L47.3809 18.9682H45.7936L45.8729 18.4126C45.8729 18.4126 45.3174 19.0476 44.365 19.0476C43.0158 19.0476 42.3809 17.6983 42.3809 16.4285C42.3809 14.365 43.6507 12.619 45.0793 12.619C45.9523 12.619 46.5872 13.4126 46.5872 13.4126ZM44.9203 17.4603C45.7933 17.4603 46.1902 16.3491 46.1902 15.4761C46.1902 14.5237 45.8727 14.1269 45.3172 14.1269C44.6029 14.1269 44.0473 14.9206 44.0473 16.1904C44.0473 16.9841 44.3648 17.4603 44.9203 17.4603Z" fill="white"/>
<path d="M2.93634 18.8888L3.88872 13.1745L4.04745 18.8888H5.15856L7.22206 13.1745L6.34904 18.8888H8.01571L9.28555 11.2698H6.6665L5.0792 15.9523L4.99983 11.2698H2.69825L1.42841 18.8888H2.93634Z" fill="white"/>
<path d="M27.5396 18.889C28.0158 16.2699 28.0952 14.1271 29.2063 14.5239C29.365 13.4921 29.6031 13.0953 29.7618 12.6985C29.7618 12.6985 29.6825 12.6985 29.4444 12.6985C28.7301 12.6985 28.1745 13.6509 28.1745 13.6509L28.3333 12.7779H26.8253L25.7936 18.9683H27.5396V18.889Z" fill="white"/>
<path fill-rule="evenodd" clip-rule="evenodd" d="M35.4761 12.857C35.4761 12.857 36.2698 12.5396 37.3809 12.5396C37.9364 12.5396 39.6031 12.6189 39.5237 14.5237L38.8888 18.8888H37.4602L37.5396 18.2538C37.5229 18.2538 37.4885 18.2856 37.4342 18.3357C37.2311 18.5233 36.7497 18.9681 35.8729 18.9681C35.3174 18.9681 34.365 18.6507 34.365 17.2221C34.365 15.3967 35.8729 14.8411 37.2221 14.8411H37.9364C37.9364 14.8411 38.0158 14.7618 38.0158 14.4443C38.0158 13.9681 37.5396 13.8888 36.984 13.8888C35.9523 13.8888 35.238 14.2062 35.238 14.2062L35.4761 12.857ZM36.6664 17.6189C37.6187 17.6189 37.7775 16.3491 37.7775 16.111C37.758 16.111 37.7433 16.111 37.7287 16.1098C37.6838 16.1062 37.6398 16.0915 37.46 16.0316C36.2695 16.0316 36.0314 16.5872 36.0314 16.984C36.0314 17.2221 36.1902 17.6189 36.6664 17.6189Z" fill="white"/>
<path d="M40.8728 18.889C41.349 16.2699 41.4284 14.1271 42.5395 14.5239C42.6982 13.4921 42.9363 13.0953 43.095 12.6985C43.095 12.6985 43.0157 12.6985 42.7776 12.6985C42.0633 12.6985 41.5077 13.6509 41.5077 13.6509L41.6665 12.7779H40.1585L39.1268 18.9683H40.8728V18.889Z" fill="white"/>
<path d="M17.857 17.6985C17.857 18.6508 18.4126 19.0477 19.1268 19.0477C19.6824 19.0477 20.1586 18.8889 20.3173 18.8096L20.5554 17.4604C20.476 17.4604 20.3173 17.5397 20.1586 17.5397C19.603 17.5397 19.5237 17.2223 19.603 17.0635L20.0792 14.2858H20.9522L21.1903 12.7778H20.3967L20.5554 11.8254" fill="#DCE5E5"/>
<path fill-rule="evenodd" clip-rule="evenodd" d="M23.6507 19.0475C22.3809 19.0475 21.6666 18.4919 21.6666 16.2697C21.6666 14.2856 22.0634 12.5395 23.7301 12.6983C25.4761 12.6983 26.0316 13.9681 26.0316 14.9999C26.0316 15.3967 25.7936 16.4284 25.7936 16.4284H22.5396C22.5396 16.4284 22.2221 17.6983 23.9682 17.6983C24.7618 17.6983 25.6348 17.3015 25.6348 17.3015L25.3174 18.8094C25.3174 18.8094 24.8412 19.0475 23.6507 19.0475ZM24.6823 15.0792C24.6823 14.9999 24.5236 13.9681 23.6506 13.9681C22.7776 13.9681 22.6188 14.9999 22.6188 15.0792H24.6823Z" fill="#DCE5E5"/>
<path d="M33.7301 18.8095L34.0475 17.0635C34.0475 17.0635 33.2539 17.4603 32.6983 17.4603C31.5872 17.4603 31.111 16.5873 31.111 15.6349C31.111 13.7301 32.0634 12.6984 33.1745 12.6984C33.9682 12.6984 34.6031 13.1746 34.6031 13.1746L34.8412 11.5079C34.8412 11.5079 33.8888 11.1111 33.0158 11.1111C31.1904 11.1111 30.1586 12.6984 30.1586 15.7143C30.1586 17.6984 30.3174 19.0476 32.2221 19.0476C32.857 19.0476 33.7301 18.8095 33.7301 18.8095Z" fill="#DCE5E5"/>
<path fill-rule="evenodd" clip-rule="evenodd" d="M11.1905 13.9683C10.1587 13.9683 9.44443 14.2858 9.44443 14.2858L11.5079 12.6985C12.1428 12.6985 13.7301 12.7779 13.7301 14.6032L13.0952 18.9683H11.6666L11.746 18.3334C11.7293 18.3334 11.6949 18.3652 11.6406 18.4153C11.4376 18.6029 10.9561 19.0477 10.0793 19.0477C9.52379 19.0477 8.57141 18.7302 8.57141 17.3017C8.57141 15.4763 10.0793 14.9207 11.4286 14.9207H12.1428C12.1428 14.9207 12.2222 14.8413 12.2222 14.5239C12.2222 14.0477 11.746 13.9683 11.1905 13.9683ZM10.7934 17.6191C11.7458 17.6191 12.6982 16.3493 12.6982 16.1112C12.6982 16.1112 11.8252 16.1112 11.5871 16.0318C10.3966 16.0318 10.1585 16.5874 10.1585 16.9842C10.1585 17.2223 10.3172 17.6191 10.7934 17.6191Z" fill="#DCE5E5"/>
<path d="M13.4919 18.8094C13.4919 18.8094 13.9681 18.9681 15.3173 18.9681C15.7142 18.9681 17.6983 19.0475 17.6983 16.9046C17.6983 14.9205 15.7935 15.3173 15.7935 14.5237C15.7935 14.1269 16.111 13.9681 16.6665 13.9681C16.9046 13.9681 17.7777 14.0475 17.7777 14.0475L18.0158 12.6189C18.0158 12.6189 17.4602 12.4602 16.5078 12.4602C15.3173 12.4602 14.9205 12.9364 14.9205 14.5237C14.9205 16.3491 16.111 16.1904 16.111 16.9046C16.111 17.3808 15.5554 17.4602 15.1586 17.4602" fill="#DCE5E5"/>
<path fill-rule="evenodd" clip-rule="evenodd" d="M45.079 12.619C45.952 12.619 46.5869 13.4126 46.5869 13.4126L48.571 11.3491L47.3806 18.9682H45.7933L45.8726 18.4126C45.8726 18.4126 45.3171 19.0475 44.3647 19.0475C43.1445 19.0475 43.1576 17.9441 43.1713 16.7938C43.1728 16.6721 43.1742 16.5499 43.1742 16.4285C43.1742 14.365 43.6504 12.619 45.079 12.619ZM44.9203 17.4602C45.7933 17.4602 46.5076 16.3491 46.5076 15.4761C46.5076 14.5237 45.8727 14.1269 45.3171 14.1269C44.6029 14.1269 44.0473 14.9206 44.0473 16.1904C44.0473 16.984 44.3648 17.4602 44.9203 17.4602Z" fill="#DCE5E5"/>
<path d="M2.93634 18.8888L3.88872 13.1745L4.04745 18.8888H5.15856L7.22206 13.1745L6.34904 18.8888H8.01571L9.28555 11.2698H7.30142L5.0792 15.9523L4.99983 11.2698H4.12682L1.42841 18.8888H2.93634Z" fill="#DCE5E5"/>
<path d="M25.8729 18.889H27.5396C28.0158 16.2699 28.0951 14.1271 29.2063 14.5239C29.365 13.4921 29.6031 13.0953 29.7618 12.6985C29.7618 12.6985 29.6824 12.6985 29.4444 12.6985C28.7301 12.6985 28.1745 13.6509 28.1745 13.6509L28.3332 12.7779" fill="#DCE5E5"/>
<path fill-rule="evenodd" clip-rule="evenodd" d="M36.984 13.9683C35.9523 13.9683 35.238 14.2858 35.238 14.2858L37.3015 12.6985C37.9364 12.6985 39.5237 12.7779 39.5237 14.6032L38.8888 18.9683H37.4602L37.5396 18.3334C37.5229 18.3334 37.4885 18.3652 37.4342 18.4153C37.2311 18.6029 36.7497 19.0477 35.8729 19.0477C35.3174 19.0477 34.365 18.7302 34.365 17.3017C34.365 15.4763 35.8729 14.9207 37.2221 14.9207H37.9364C37.9364 14.9207 38.0158 14.8413 38.0158 14.5239C38.0158 14.0477 37.5396 13.9683 36.984 13.9683ZM36.587 17.6191C37.5394 17.6191 38.4918 16.3493 38.4918 16.1112C38.4918 16.1112 37.6981 16.1112 37.3807 16.0318C36.1902 16.0318 35.9521 16.5874 35.9521 16.9842C35.9521 17.2223 36.1108 17.6191 36.587 17.6191Z" fill="#DCE5E5"/>
<path d="M39.2062 18.889H40.8728C41.349 16.2699 41.4284 14.1271 42.5395 14.5239C42.6982 13.4921 42.9363 13.0953 43.0951 12.6985C43.0951 12.6985 43.0157 12.6985 42.7776 12.6985C42.0633 12.6985 41.5078 13.6509 41.5078 13.6509L41.6665 12.7779" fill="#DCE5E5"/>
</svg>
