<svg width="20" height="20" viewBox="0 0 20 20" fill="none" xmlns="http://www.w3.org/2000/svg">
<path d="M19.2139 15.0529C17.4161 13.4902 15.7524 11.2856 15.7524 5.78116C15.7524 2.5934 13.1721 0 10.0003 0C6.82819 0 4.24746 2.5934 4.24746 5.78116C4.24746 11.2906 2.58439 13.493 0.785036 15.0543C0.286165 15.491 0 16.1199 0 16.7799C0 17.1431 0.292971 17.4376 0.654342 17.4376H6.86405C7.16696 18.8987 8.45785 20 10 20C11.5422 20 12.8331 18.8988 13.136 17.4376H19.3457C19.707 17.4376 20 17.1431 20 16.7799C20 16.1146 19.7131 15.4847 19.2139 15.0529ZM10 18.6847C9.18513 18.6847 8.48882 18.1648 8.22185 17.4376H11.7782C11.5112 18.1648 10.8149 18.6847 10 18.6847ZM1.56641 16.1222C1.59022 16.0963 1.61561 16.0715 1.6424 16.0481C4.38566 13.6677 5.55606 10.5972 5.55606 5.78116C5.55606 3.31867 7.5498 1.31533 10.0003 1.31533C12.4504 1.31533 14.4437 3.31867 14.4437 5.78116C14.4437 10.5928 15.6143 13.6632 18.3589 16.0487C18.3857 16.072 18.4111 16.0964 18.435 16.1222H1.56641Z" fill="#999999"/>
<circle cx="15" cy="5" r="4" fill="#E24C4C"/>
</svg>
