<svg width="518" height="468" viewBox="0 0 518 468" fill="none" xmlns="http://www.w3.org/2000/svg">
<path d="M122.589 61.3616C122.589 61.3616 64.8428 117.281 47.7352 180.722C30.6276 244.163 55.3723 310.758 113.567 347.617C171.762 384.476 249.408 352.47 326.629 363.001C403.85 373.532 475.461 343.516 485.017 266.183C494.572 188.85 438.709 178.829 405.028 103.607C371.347 28.3854 261.623 -62.6087 122.589 61.3616Z" fill="#B2DBC3"/>
<path opacity="0.7" d="M122.589 61.3616C122.589 61.3616 64.8428 117.281 47.7352 180.722C30.6276 244.163 55.3723 310.758 113.567 347.617C171.762 384.476 249.408 352.47 326.629 363.001C403.85 373.532 475.461 343.516 485.017 266.183C494.572 188.85 438.709 178.829 405.028 103.607C371.347 28.3854 261.623 -62.6087 122.589 61.3616Z" fill="#FDBF50"/>
<path d="M495.447 209.779C495.447 209.779 495.447 204.683 488.307 197.537C481.168 190.391 476.566 186.327 476.566 186.327C476.566 186.327 472.997 198.047 479.626 205.193C484.496 210.209 489.776 214.811 495.41 218.951L495.447 209.779Z" fill="#B2DBC3"/>
<path d="M485.078 241.615C485.078 241.615 485.078 236.519 477.938 229.385C470.799 222.251 466.209 218.163 466.209 218.163C466.209 218.163 462.567 229.895 469.269 237.029C474.137 242.047 479.417 246.649 485.053 250.787L485.078 241.615Z" fill="#B2DBC3"/>
<path d="M494.997 218.466C494.997 218.466 495.532 213.395 503.399 207.049C511.267 200.704 516.245 197.137 516.245 197.137C516.245 197.137 518.564 209.172 511.206 215.566C505.824 220.041 500.077 224.058 494.026 227.578L494.997 218.466Z" fill="#B2DBC3"/>
<path d="M482.479 256.065C482.479 256.065 483.548 251.078 492.023 245.594C500.498 240.11 505.852 237.102 505.852 237.102C505.852 237.102 506.884 249.319 498.907 254.912C493.079 258.795 486.939 262.188 480.549 265.055L482.479 256.065Z" fill="#B2DBC3"/>
<path d="M484.835 297.061C484.835 297.061 484.835 291.953 491.974 284.819C499.113 277.685 503.703 273.608 503.703 273.608C503.703 273.608 507.273 285.328 500.643 292.462C495.777 297.486 490.497 302.092 484.859 306.233L484.835 297.061Z" fill="#B2DBC3"/>
<path d="M484.713 307.058C484.713 307.058 485.43 302.011 479.383 293.93C473.337 285.85 469.366 281.167 469.366 281.167C469.366 281.167 464.157 292.268 469.706 300.276C473.82 305.939 478.401 311.247 483.402 316.145L484.713 307.058Z" fill="#B2DBC3"/>
<path d="M477.671 336.77C477.671 336.77 477.671 331.675 484.81 324.541C491.95 317.407 496.539 313.33 496.539 313.33C496.539 313.33 500.121 325.05 493.48 332.184C488.613 337.208 483.333 341.814 477.695 345.955L477.671 336.77Z" fill="#B2DBC3"/>
<path d="M482.406 363.608C482.406 363.608 481.107 358.67 486.207 349.959C491.306 341.247 494.706 336.14 494.706 336.14C494.706 336.14 501.129 346.574 496.527 355.163C493.076 361.252 489.125 367.043 484.713 372.477L482.406 363.608Z" fill="#B2DBC3"/>
<path d="M496.09 208.469C495.733 213.779 495.081 219.065 494.135 224.302C491.318 238.861 484.252 248.276 481.435 261.452C478.618 274.628 486.717 291.577 484.543 308.49C482.37 325.402 475.789 334.805 477.671 346.1C479.553 357.396 489.655 389.05 489.655 389.05" stroke="#263238" stroke-width="0.75" stroke-linecap="round" stroke-linejoin="round"/>
<path d="M494.924 221.851L502.622 215.943" stroke="#263238" stroke-width="0.75" stroke-linecap="round" stroke-linejoin="round"/>
<path d="M495.289 215.057L492.059 209.33" stroke="#263238" stroke-width="0.75" stroke-linecap="round" stroke-linejoin="round"/>
<path d="M481.86 260.845C481.86 260.845 488.307 255.992 494.925 251.139" stroke="#263238" stroke-width="0.75" stroke-linecap="round" stroke-linejoin="round"/>
<path d="M484.738 249.889C481.598 244 477.876 238.44 473.628 233.292" stroke="#263238" stroke-width="0.75" stroke-linecap="round" stroke-linejoin="round"/>
<path d="M485.078 304.304C488.757 297.529 493.404 291.325 498.87 285.887" stroke="#263238" stroke-width="0.75" stroke-linecap="round" stroke-linejoin="round"/>
<path d="M483.827 311.462C481.874 306.863 479.538 302.435 476.846 298.225C473.094 292.681 472.547 291.965 472.547 291.965" stroke="#263238" stroke-width="0.75" stroke-linecap="round" stroke-linejoin="round"/>
<path d="M477.671 346.088C479.301 342.034 481.241 338.112 483.475 334.356C485.706 330.876 488.219 327.585 490.991 324.516" stroke="#263238" stroke-width="0.75" stroke-linecap="round" stroke-linejoin="round"/>
<path d="M484.762 372.477C484.39 368.611 485.056 364.716 486.692 361.193C489.376 356.001 492.423 349.206 493.674 346.525" stroke="#263238" stroke-width="0.75" stroke-linecap="round" stroke-linejoin="round"/>
<path d="M448.677 277.879C448.677 277.879 448.118 274.688 451.822 269.386C455.525 264.084 457.965 261.076 457.965 261.076C457.965 261.076 461.474 268.052 458.099 273.208C455.582 276.885 452.764 280.347 449.673 283.557L448.677 277.879Z" fill="#B2DBC3"/>
<path d="M458.633 296.733C458.633 296.733 458.087 293.542 461.79 288.24C465.493 282.938 467.921 279.929 467.921 279.929C467.921 279.929 471.442 286.894 468.055 292.062C465.54 295.737 462.721 299.194 459.629 302.399L458.633 296.733Z" fill="#B2DBC3"/>
<path d="M449.903 283.278C449.903 283.278 449.017 280.16 443.395 277.03C437.774 273.9 434.253 272.177 434.253 272.177C434.253 272.177 434.119 279.978 439.425 283.181C443.286 285.408 447.327 287.308 451.506 288.859L449.903 283.278Z" fill="#B2DBC3"/>
<path d="M461.839 305.493C461.839 305.493 460.624 302.484 454.711 299.972C448.798 297.461 445.119 296.139 445.119 296.139C445.119 296.139 445.799 303.903 451.409 306.548C455.485 308.352 459.705 309.813 464.024 310.916L461.839 305.493Z" fill="#B2DBC3"/>
<path d="M464.813 331.456C464.813 331.456 464.267 328.266 459.009 324.565C453.752 320.865 450.425 318.802 450.425 318.802C450.425 318.802 449.466 326.543 454.396 330.304C458.003 332.919 461.821 335.232 465.809 337.219L464.813 331.456Z" fill="#B2DBC3"/>
<path d="M465.979 337.717C465.979 337.717 464.971 334.635 467.897 328.909C470.823 323.182 472.754 319.821 472.754 319.821C472.754 319.821 477.222 326.215 474.612 331.832C472.649 335.831 470.354 339.658 467.752 343.273L465.979 337.717Z" fill="#B2DBC3"/>
<path d="M474.939 363.462C474.939 363.462 475.316 360.235 480.342 356.182C485.369 352.13 488.574 349.946 488.574 349.946C488.574 349.946 489.983 357.614 485.272 361.642C481.825 364.467 478.145 366.995 474.271 369.201L474.939 363.462Z" fill="#B2DBC3"/>
<path d="M473.616 355.552C473.616 355.552 473.057 352.361 467.812 348.66C462.567 344.96 459.228 342.897 459.228 342.897C459.228 342.897 458.269 350.638 463.198 354.387C466.802 357.011 470.62 359.329 474.612 361.315L473.616 355.552Z" fill="#B2DBC3"/>
<path d="M473.543 372.938C473.543 372.938 473.822 369.698 469.67 364.784C465.517 359.871 462.834 357.044 462.834 357.044C462.834 357.044 459.944 364.323 463.769 369.176C466.59 372.623 469.697 375.825 473.057 378.749L473.543 372.938Z" fill="#B2DBC3"/>
<path d="M448.131 277.139C448.936 280.424 449.917 283.664 451.069 286.845C454.432 295.678 459.872 300.81 463.077 308.769C466.282 316.728 463.077 328.181 466.234 338.603C469.391 349.024 474.587 354.144 474.636 361.424C474.684 368.703 471.807 388.94 471.807 388.94" stroke="#263238" stroke-width="0.75" stroke-linecap="round" stroke-linejoin="round"/>
<path d="M450.316 285.401L444.84 282.526" stroke="#263238" stroke-width="0.75" stroke-linecap="round" stroke-linejoin="round"/>
<path d="M449.345 281.167L450.753 277.236" stroke="#263238" stroke-width="0.75" stroke-linecap="round" stroke-linejoin="round"/>
<path d="M462.749 308.429C462.749 308.429 458.172 306.099 453.497 303.794" stroke="#263238" stroke-width="0.75" stroke-linecap="round" stroke-linejoin="round"/>
<path d="M459.592 301.477C461.049 297.598 462.827 293.848 464.91 290.266" stroke="#263238" stroke-width="0.75" stroke-linecap="round" stroke-linejoin="round"/>
<path d="M465.408 336.03C462.362 332.183 458.775 328.795 454.76 325.973" stroke="#263238" stroke-width="0.75" stroke-linecap="round" stroke-linejoin="round"/>
<path d="M467.011 340.41C467.735 337.312 468.718 334.281 469.949 331.347C471.697 327.465 471.965 326.967 471.965 326.967" stroke="#263238" stroke-width="0.75" stroke-linecap="round" stroke-linejoin="round"/>
<path d="M474.381 366.956C476.161 364.765 478.132 362.735 480.27 360.89C481.627 359.885 482.902 358.773 484.082 357.566" stroke="#263238" stroke-width="0.75" stroke-linecap="round" stroke-linejoin="round"/>
<path d="M474.636 361.424C473.171 359.061 471.527 356.814 469.718 354.702C467.941 352.765 466.008 350.975 463.939 349.352" stroke="#263238" stroke-width="0.75" stroke-linecap="round" stroke-linejoin="round"/>
<path d="M473.057 378.749C472.872 376.285 472.034 373.915 470.629 371.882C468.383 368.922 465.772 364.991 464.655 363.389" stroke="#263238" stroke-width="0.75" stroke-linecap="round" stroke-linejoin="round"/>
<path d="M462.786 386.32H497.62V404.312C497.62 405.114 497.301 405.882 496.734 406.449C496.167 407.015 495.398 407.333 494.597 407.333H465.809C465.007 407.333 464.238 407.015 463.671 406.449C463.104 405.882 462.786 405.114 462.786 404.312V386.32Z" fill="#263238" stroke="#263238" stroke-linecap="round" stroke-linejoin="round"/>
<path d="M52.8832 233.838C52.8832 233.838 52.8832 229.495 46.8124 223.428C40.7415 217.362 36.8076 213.892 36.8076 213.892C36.8076 213.892 33.7722 223.865 39.406 229.931C43.5579 234.2 48.0577 238.116 52.8589 241.639L52.8832 233.838Z" fill="#B2DBC3"/>
<path d="M44.0926 260.906C44.0926 260.906 44.0926 256.574 38.0218 250.508C31.951 244.442 28.0171 240.923 28.0171 240.923C28.0171 240.923 24.9817 250.884 30.6154 256.963C34.7715 261.247 39.2797 265.175 44.0926 268.707V260.906Z" fill="#B2DBC3"/>
<path d="M52.5068 241.215C52.5068 241.215 52.9561 236.907 59.6461 231.508C66.3362 226.11 70.5736 223.089 70.5736 223.089C70.5736 223.089 72.5406 233.316 66.2876 238.764C61.7226 242.566 56.8491 245.983 51.7176 248.979L52.5068 241.215Z" fill="#B2DBC3"/>
<path d="M41.8586 273.196C41.8586 273.196 42.7692 268.95 49.9692 264.291C57.1692 259.632 61.7345 257.011 61.7345 257.011C61.7345 257.011 62.6087 267.384 55.8215 272.14C50.8705 275.449 45.6517 278.338 40.2195 280.779L41.8586 273.196Z" fill="#B2DBC3"/>
<path d="M43.862 308.053C43.862 308.053 43.862 303.721 49.9328 297.643C56.0036 291.565 59.8768 288.107 59.8768 288.107C59.8768 288.107 62.9122 298.08 57.2664 304.146C53.1239 308.42 48.6277 312.336 43.8256 315.854L43.862 308.053Z" fill="#B2DBC3"/>
<path d="M43.7527 316.558C43.7527 316.558 44.3719 312.275 39.2239 305.396C34.0758 298.516 30.7247 294.537 30.7247 294.537C30.7247 294.537 26.3052 303.976 31.0161 310.795C34.5179 315.609 38.4168 320.122 42.6721 324.286L43.7527 316.558Z" fill="#B2DBC3"/>
<path d="M37.7669 341.781C37.7669 341.781 37.7669 337.45 43.8377 331.371C49.9085 325.293 53.806 321.835 53.806 321.835C53.806 321.835 56.8414 331.808 51.2077 337.875C47.0557 342.143 42.5559 346.059 37.7547 349.582L37.7669 341.781Z" fill="#B2DBC3"/>
<path d="M41.8222 364.675C41.8222 364.675 40.7173 360.49 45.064 353.077C49.4107 345.664 52.349 341.32 52.349 341.32C52.349 341.32 57.7642 350.116 53.806 357.469C50.8733 362.644 47.5147 367.567 43.7649 372.185L41.8222 364.675Z" fill="#B2DBC3"/>
<path d="M53.4296 232.722C53.1272 237.238 52.5718 241.734 51.7662 246.189C49.3378 258.576 43.3641 266.572 40.9722 277.734C38.5803 288.895 45.4646 303.357 43.6191 317.771C41.7736 332.184 36.1641 340.143 37.7668 349.74C39.3695 359.337 47.9658 386.271 47.9658 386.271" stroke="#263238" stroke-width="0.75" stroke-linecap="round" stroke-linejoin="round"/>
<path d="M52.4461 244.102L58.9905 239.079" stroke="#263238" stroke-width="0.75" stroke-linecap="round" stroke-linejoin="round"/>
<path d="M52.7497 238.315L50.0057 233.45" stroke="#263238" stroke-width="0.75" stroke-linecap="round" stroke-linejoin="round"/>
<path d="M41.3365 277.321C41.3365 277.321 46.8124 273.208 52.4462 269.107" stroke="#263238" stroke-width="0.75" stroke-linecap="round" stroke-linejoin="round"/>
<path d="M43.777 267.943C41.122 262.938 37.9739 258.212 34.3793 253.832" stroke="#263238" stroke-width="0.75" stroke-linecap="round" stroke-linejoin="round"/>
<path d="M44.0927 314.216C47.2231 308.455 51.1739 303.179 55.8215 298.553" stroke="#263238" stroke-width="0.75" stroke-linecap="round" stroke-linejoin="round"/>
<path d="M42.9999 320.307C41.341 316.396 39.3591 312.63 37.0748 309.048C33.8694 304.328 33.4323 303.721 33.4323 303.721" stroke="#263238" stroke-width="0.75" stroke-linecap="round" stroke-linejoin="round"/>
<path d="M37.7669 349.74C39.1566 346.297 40.8044 342.963 42.6964 339.767C44.5971 336.811 46.7372 334.015 49.095 331.408" stroke="#263238" stroke-width="0.75" stroke-linecap="round" stroke-linejoin="round"/>
<path d="M43.8013 372.185C43.4835 368.898 44.0493 365.585 45.4404 362.588C47.723 358.172 50.2971 352.397 51.3777 350.116" stroke="#263238" stroke-width="0.75" stroke-linecap="round" stroke-linejoin="round"/>
<path d="M13.1072 291.747C13.1072 291.747 12.6458 289.029 15.7905 284.564C18.9352 280.099 21.0114 277.503 21.0114 277.503C21.0114 277.503 23.9982 283.424 21.1207 287.84C18.9827 290.967 16.5865 293.909 13.9571 296.636L13.1072 291.747Z" fill="#B2DBC3"/>
<path d="M21.5821 307.774C21.5821 307.774 21.1085 305.056 24.2654 300.591C27.4222 296.126 29.4863 293.518 29.4863 293.518C29.4863 293.518 32.4731 299.451 29.5956 303.867C27.4576 306.994 25.0614 309.936 22.432 312.663L21.5821 307.774Z" fill="#B2DBC3"/>
<path d="M14.1513 296.333C14.1513 296.333 13.3986 293.688 8.62689 291.031C3.85522 288.374 0.856229 286.93 0.856229 286.93C0.856229 286.93 0.734813 293.554 5.23937 296.296C8.52232 298.197 11.9582 299.82 15.5112 301.149L14.1513 296.333Z" fill="#B2DBC3"/>
<path d="M24.3018 315.235C24.3018 315.235 23.2697 312.675 18.2309 310.528C13.1922 308.38 10.096 307.264 10.096 307.264C10.096 307.264 10.6788 313.876 15.4505 316.121C18.9145 317.658 22.5006 318.904 26.1716 319.846L24.3018 315.235Z" fill="#B2DBC3"/>
<path d="M26.8394 337.304C26.8394 337.304 26.3659 334.587 21.8977 331.444C17.4296 328.302 14.6127 326.591 14.6127 326.591C14.6127 326.591 13.7385 333.131 17.976 336.322C21.0454 338.548 24.2943 340.516 27.6893 342.206L26.8394 337.304Z" fill="#B2DBC3"/>
<path d="M27.8228 342.63C27.8228 342.63 26.9729 340.01 29.4498 335.145C31.9267 330.28 33.6144 327.416 33.6144 327.416C33.6144 327.416 37.4148 332.852 35.1928 337.632C33.5256 341.025 31.5761 344.271 29.3648 347.338L27.8228 342.63Z" fill="#B2DBC3"/>
<path d="M35.4478 364.566C35.4478 364.566 35.7635 361.824 40.0495 358.427C44.3355 355.03 47.0431 353.125 47.0431 353.125C47.0431 353.125 48.2573 359.64 44.2384 363.074C41.3036 365.482 38.1723 367.642 34.8772 369.528L35.4478 364.566Z" fill="#B2DBC3"/>
<path d="M34.3794 357.796C34.3794 357.796 33.9058 355.078 29.4377 351.936C24.9696 348.794 22.1527 347.083 22.1527 347.083C22.1527 347.083 21.3271 353.671 25.5281 356.862C28.5962 359.09 31.8453 361.059 35.2414 362.746L34.3794 357.796Z" fill="#B2DBC3"/>
<path d="M34.258 372.574C34.258 372.574 34.4886 369.832 30.9676 365.646C27.4465 361.46 25.1517 359.07 25.1517 359.07C25.1517 359.07 22.7234 365.221 25.9409 369.383C28.3443 372.312 30.9883 375.035 33.8451 377.524L34.258 372.574Z" fill="#B2DBC3"/>
<path d="M12.6458 291.116C13.3326 293.912 14.1675 296.67 15.147 299.378C18.0003 306.888 22.6384 311.244 25.3581 318.014C28.0778 324.784 25.3581 334.562 28.0414 343.383C30.7247 352.203 35.1443 356.607 35.1807 362.795C35.2171 368.982 32.7524 386.198 32.7524 386.198" stroke="#263238" stroke-width="0.75" stroke-linecap="round" stroke-linejoin="round"/>
<path d="M14.5035 298.14L9.8532 295.702" stroke="#263238" stroke-width="0.75" stroke-linecap="round" stroke-linejoin="round"/>
<path d="M13.6899 294.549L14.8798 291.201" stroke="#263238" stroke-width="0.75" stroke-linecap="round" stroke-linejoin="round"/>
<path d="M25.0789 317.722C25.0789 317.722 21.1935 315.745 17.2111 313.779" stroke="#263238" stroke-width="0.75" stroke-linecap="round" stroke-linejoin="round"/>
<path d="M22.3955 311.814C23.6393 308.516 25.1541 305.326 26.9244 302.278" stroke="#263238" stroke-width="0.75" stroke-linecap="round" stroke-linejoin="round"/>
<path d="M27.3736 341.199C24.7794 337.947 21.7287 335.086 18.3159 332.706" stroke="#263238" stroke-width="0.75" stroke-linecap="round" stroke-linejoin="round"/>
<path d="M28.697 344.899C29.3164 342.267 30.153 339.69 31.1982 337.195C32.6916 333.895 32.9102 333.458 32.9102 333.458" stroke="#263238" stroke-width="0.75" stroke-linecap="round" stroke-linejoin="round"/>
<path d="M34.9743 367.49C36.4844 365.618 38.1585 363.884 39.9767 362.309C41.1314 361.455 42.2155 360.51 43.2185 359.483" stroke="#263238" stroke-width="0.75" stroke-linecap="round" stroke-linejoin="round"/>
<path d="M35.1807 362.795C33.938 360.785 32.5415 358.875 31.0039 357.08C29.5129 355.429 27.8885 353.904 26.1473 352.519" stroke="#263238" stroke-width="0.75" stroke-linecap="round" stroke-linejoin="round"/>
<path d="M33.8451 377.524C33.6815 375.425 32.9652 373.408 31.7689 371.676C29.8626 369.164 27.6043 365.816 26.6937 364.505" stroke="#263238" stroke-width="0.75" stroke-linecap="round" stroke-linejoin="round"/>
<path d="M23.2576 386.32H58.092V404.312C58.092 404.713 58.0123 405.11 57.8573 405.48C57.7023 405.849 57.4753 406.185 57.1894 406.466C56.9035 406.747 56.5644 406.969 56.192 407.117C55.8196 407.266 55.4212 407.34 55.0201 407.333H26.2808C25.479 407.333 24.71 407.015 24.1431 406.449C23.5761 405.882 23.2576 405.114 23.2576 404.312V386.32Z" fill="#263238" stroke="#263238" stroke-linecap="round" stroke-linejoin="round"/>
<path d="M355.089 160.849C350.839 166.136 347.954 172.385 346.687 179.047C344.453 190.367 338.953 211.635 339.645 219.012C340.337 226.389 342.073 230.501 348.739 231.703C355.405 232.904 359.205 227.068 360.589 222.094C361.467 218.82 362.152 215.498 362.641 212.145L364.013 185.114C364.013 185.114 361.585 168.868 360.431 165.447C359.278 162.025 355.089 160.849 355.089 160.849Z" fill="#B2DBC3" stroke="#263238" stroke-linecap="round" stroke-linejoin="round"/>
<path d="M444.379 155.437C444.379 155.437 446.807 154.903 449.114 163.323C451.421 171.743 454.201 183.827 458.755 198.726C463.308 213.625 464.194 218.539 463.842 221.863C463.49 225.187 460.867 228.876 451.7 228.876C442.533 228.876 438.344 225.369 435.916 217.483C433.488 209.597 433.84 185.235 433.67 182.08C433.5 178.926 441.562 153.86 444.379 155.437Z" fill="#B2DBC3" stroke="#263238" stroke-linecap="round" stroke-linejoin="round"/>
<path d="M381.752 417.136C381.752 417.136 375.791 423.445 372.282 427.485C368.773 431.526 367.546 433.964 373.326 436.415C379.105 438.866 388.066 435.202 390.701 431.162C393.335 427.121 398.945 422.572 398.945 422.572C398.945 422.572 401.919 419.247 398.058 414.516C394.197 409.784 383.501 415.207 381.752 417.136Z" fill="white" stroke="#263238" stroke-linecap="round" stroke-linejoin="round"/>
<path d="M417.534 422.402C417.534 422.402 423.495 423.276 426.652 426.042C429.809 428.808 440.87 434.983 448.228 431.999C455.586 429.014 450.862 424.113 446.831 420.606C444.567 418.6 442.097 416.839 439.461 415.353C439.461 415.353 427.708 414.479 422.463 417.1C417.218 419.721 417.534 422.402 417.534 422.402Z" fill="white" stroke="#263238" stroke-linecap="round" stroke-linejoin="round"/>
<path d="M374.904 340.883C374.904 340.883 377.721 361.921 376.313 368.23C374.904 374.539 370.873 378.227 373.884 384.366C376.113 389.113 377.745 394.117 378.741 399.265C379.093 401.364 377.163 401.886 378.741 404.118C379.891 405.557 380.835 407.15 381.546 408.85C381.546 409.384 379.445 412.356 379.445 413.06C379.445 413.763 380.502 418.143 380.502 418.143C380.502 418.143 386.111 416.93 390.142 418.495C393.062 419.752 395.829 421.339 398.386 423.227C398.386 423.227 402.029 421.819 403.304 419.721C403.991 418.62 404.407 417.373 404.518 416.081C404.688 415.377 406.448 411.689 406.278 408.886C406.108 406.084 404.166 400.126 404.166 396.62C404.166 393.114 406.8 389.256 406.8 383.65C406.8 378.045 404.166 342.109 404.166 342.109L406.594 341.223C406.594 341.223 410.455 362.613 410.455 372.61C410.455 382.607 407.48 395.043 409.411 397.494C411.341 399.944 413.612 402.056 413.612 402.577C413.612 403.099 411.329 406.957 411.863 408.886C412.697 411.42 413.398 413.996 413.964 416.602C413.964 417.658 415.894 421.686 417.473 422.39C419.051 423.093 419.901 421.504 429.226 419.587C438.551 417.67 443.796 418.18 442.91 415.377C442.023 412.574 441.161 408.886 440.105 408.182C439.049 407.479 440.457 406.969 440.105 404.336C439.753 401.704 437.822 398.901 436.074 394.691C434.325 390.481 436.766 385.931 437.47 381.539C438.174 377.147 437.118 370.62 435.37 363.486C433.621 356.352 435.188 338.772 435.188 338.772L436.074 331.942C436.074 331.942 409.229 334.368 392.74 334.21L375.026 334.04C375.026 334.04 373.86 335.278 374.904 340.883Z" fill="#263238" stroke="#263238" stroke-linecap="round" stroke-linejoin="round"/>
<path d="M442.97 267.615C442.97 267.615 445.399 299.524 448.58 316.145C450.41 325.526 451.571 335.026 452.052 344.572H439.291C438.757 344.572 440.166 285.498 440.506 280.269C440.968 275.989 441.793 271.756 442.97 267.615Z" fill="#B2DBC3" stroke="#263238" stroke-linecap="round" stroke-linejoin="round"/>
<path d="M390.13 137.797C390.13 137.797 375.22 147.782 367.51 151.288C359.8 154.794 355.575 159.356 355.053 160.994C354.531 162.632 363.467 187.807 363.467 187.807C363.467 187.807 362.945 271.073 362.945 285.098C362.945 299.123 358.562 341.357 359.084 341.357C359.606 341.357 373.654 350.48 392.935 351.002C412.216 351.524 418.432 348.721 424.503 348.721C430.574 348.721 442.715 348.721 442.922 346.974C443.128 345.227 443.274 306.475 443.444 288.422C443.614 270.369 443.796 257.569 443.444 254.597C443.092 251.624 438.187 187.455 438.187 187.455C438.187 187.455 441.829 176.766 443.978 168.177C446.127 159.587 446.079 158.531 443.444 154.685C440.809 150.839 421.043 140.357 417.534 139.01C413.222 137.502 408.732 136.56 404.178 136.207C400.875 135.977 390.13 137.797 390.13 137.797Z" fill="#B2DBC3" stroke="#263238" stroke-linecap="round" stroke-linejoin="round"/>
<path d="M357.19 209.075C357.19 209.075 359.472 214.329 362.277 216.61C365.082 218.891 371.577 219.946 372.974 223.452C374.37 226.959 372.974 229.579 371.395 233.789C369.817 237.999 370.703 245.012 364.912 245.922C359.12 246.832 357.372 244.709 352.624 241.36C347.877 238.012 344.914 237.502 342.11 232.418C339.305 227.335 338.467 220.286 340.896 216.476" fill="#B2DBC3"/>
<path d="M357.19 209.075C357.19 209.075 359.472 214.329 362.277 216.61C365.082 218.891 371.577 219.946 372.974 223.452C374.37 226.959 372.974 229.579 371.395 233.789C369.817 237.999 370.703 245.012 364.912 245.922C359.12 246.832 357.372 244.709 352.624 241.36C347.877 238.012 344.914 237.502 342.11 232.418C339.305 227.335 338.467 220.286 340.896 216.476" stroke="#263238" stroke-linecap="round" stroke-linejoin="round"/>
<path d="M389.474 130.893L388.916 145.622C388.916 145.622 387.519 147.721 395.934 148.243C401.342 148.526 406.765 148.118 412.07 147.03L410.674 131.087C410.674 131.087 401.895 134.727 396.808 133.017C394.422 132.12 391.97 131.41 389.474 130.893Z" fill="white" stroke="#263238" stroke-linecap="round" stroke-linejoin="round"/>
<path d="M386.135 127.217C386.135 127.217 384.921 144.203 384.035 149.298C383.148 154.394 383.331 157.536 385.249 158.762C387.167 159.987 398.398 164.379 404.19 164.027C409.982 163.675 418.76 158.41 419.452 156.833C420.144 155.255 414.207 130.517 414.207 130.517L413.32 131.573C413.32 131.573 414.899 144.542 414.377 144.919C413.855 145.295 393.505 143.863 389.814 143.705C386.123 143.548 387.192 143.353 387.192 143.353L387.01 128.455L386.135 127.217Z" fill="white" stroke="#263238" stroke-linecap="round" stroke-linejoin="round"/>
<path d="M385.577 147.43C385.577 147.43 404.748 150.257 416.247 148.037" stroke="#263238" stroke-width="0.5" stroke-miterlimit="10"/>
<path d="M384.775 151.87C384.775 151.87 398.131 157.512 416.247 152.465" stroke="#263238" stroke-width="0.5" stroke-miterlimit="10"/>
<path d="M386.184 157.112C386.184 157.112 398.896 163.967 416.247 156.699" stroke="#263238" stroke-width="0.5" stroke-miterlimit="10"/>
<path d="M417.194 109.334C417.631 103.947 417.995 98.4144 416.659 95.6603C414.559 91.2805 408.233 86.1969 399.115 86.5488C389.996 86.9006 382.274 90.4069 382.456 101.617C382.456 101.617 382.845 104.954 383.294 109.043C382.459 110.828 382.167 112.819 382.456 114.769C382.739 116.64 383.396 118.435 384.387 120.047C384.472 121.09 384.533 121.988 384.557 122.655C384.727 127.387 387.884 132.992 390.701 134.921C393.517 136.85 398.763 139.835 402.102 139.835C405.441 139.835 411.39 136.68 414.243 132.119C416.453 128.479 416.672 126.052 416.672 121.77H416.842C417.344 119.52 417.641 117.23 417.728 114.927C417.8 113.047 417.62 111.166 417.194 109.334Z" fill="white" stroke="#263238" stroke-linecap="round" stroke-linejoin="round"/>
<path d="M384.059 110.389C384.059 110.389 384.581 114.769 385.455 114.587C386.33 114.405 387.386 108.108 387.386 108.108L384.059 110.389Z" fill="#263238" stroke="#263238" stroke-linecap="round" stroke-linejoin="round"/>
<path d="M413.855 109.892C413.855 109.892 413.855 114.806 415.069 115.509C416.283 116.213 417.169 111.299 417.169 111.299C416.175 110.604 415.046 110.125 413.855 109.892Z" fill="#263238" stroke="#263238" stroke-linecap="round" stroke-linejoin="round"/>
<path d="M416.659 95.6604C414.559 91.2805 408.233 86.1969 399.115 86.5488C389.996 86.9006 382.274 90.4069 382.456 101.617C382.456 101.617 382.845 104.954 383.294 109.043C382.741 110.228 382.424 111.509 382.359 112.816C385.771 110.086 392.157 106.179 400.171 106.883C406.407 107.593 412.401 109.704 417.704 113.058C417.648 111.804 417.477 110.557 417.194 109.334C417.631 103.947 418.056 98.4508 416.659 95.6604Z" fill="#B2DBC3" stroke="#263238" stroke-linecap="round" stroke-linejoin="round"/>
<path d="M397.888 113.532L396.832 119.84C396.832 119.84 394.902 120.01 395.618 121.236C396.334 122.461 400.001 123.868 401.762 123.347C403.522 122.825 405.271 121.066 405.088 120.362C405.034 120.152 404.925 119.96 404.771 119.806C404.617 119.652 404.425 119.543 404.214 119.489L401.932 112.998" stroke="#263238" stroke-linecap="round" stroke-linejoin="round"/>
<path d="M395.958 126.513C399.326 127.24 402.823 127.119 406.133 126.162" stroke="#263238" stroke-linecap="round" stroke-linejoin="round"/>
<path d="M394.027 113.277C394.027 114.199 393.554 114.939 392.971 114.939C392.388 114.939 391.927 114.199 391.927 113.277C391.927 112.355 392.4 111.615 392.971 111.615C393.542 111.615 394.027 112.318 394.027 113.277Z" fill="#263238"/>
<path d="M407.359 113.192C407.359 114.114 406.885 114.854 406.315 114.854C405.744 114.854 405.258 114.114 405.258 113.192C405.258 112.27 405.732 111.53 406.315 111.53C406.898 111.53 407.359 112.318 407.359 113.192Z" fill="#263238"/>
<path d="M389.996 110.741C389.996 110.741 391.21 107.757 395.084 108.812" stroke="#263238" stroke-linecap="round" stroke-linejoin="round"/>
<path d="M402.976 108.982C402.976 108.982 406.618 106.349 409.289 110.911" stroke="#263238" stroke-linecap="round" stroke-linejoin="round"/>
<path d="M369.817 230.987C369.817 230.987 380.526 233.413 382.978 232.916C386.193 232.316 389.137 230.72 391.393 228.354C394.562 225.2 397.184 222.567 397.184 225.2C397.195 226.238 396.999 227.269 396.607 228.232C396.215 229.194 395.635 230.069 394.902 230.805C393.687 232.212 391.393 233.789 390.871 236.07C390.348 238.351 391.053 240.098 393.857 241.154C396.662 242.209 405.428 243.774 405.428 246.007C405.428 248.239 404.724 253.553 401.567 255.3C398.411 257.047 390.701 255.822 390.701 255.822C390.701 255.822 397.014 259.328 395.788 260.214C394.562 261.1 390.871 259.862 389.122 258.285C387.374 256.708 386.694 256.526 381.57 252.85C376.446 249.173 372.1 244.781 369.647 243.386C368.318 242.764 367.09 241.946 366.004 240.96C364.596 239.746 364.074 237.32 365.118 234.481C365.474 233.64 366.001 232.882 366.666 232.256C367.331 231.629 368.118 231.147 368.979 230.841L369.817 230.987Z" fill="white" stroke="#263238" stroke-linecap="round" stroke-linejoin="round"/>
<path d="M453.145 211.004C453.145 211.004 440.518 213.431 439.291 214.329C438.065 215.227 439.291 218.891 439.291 218.891C439.291 218.891 428.583 223.974 424.552 226.777C420.521 229.579 424.199 235.197 424.382 235.888C424.382 235.888 427.538 246.237 432.796 249.744C438.053 253.25 443.493 252.012 448.762 246.407C454.031 240.802 457.358 233.061 459.811 230.453C462.263 227.844 464.898 225.369 464.024 219.534C463.15 213.698 458.585 213.043 458.585 213.043" fill="#B2DBC3"/>
<path d="M453.145 211.004C453.145 211.004 440.518 213.431 439.291 214.329C438.065 215.227 439.291 218.891 439.291 218.891C439.291 218.891 428.583 223.974 424.552 226.777C420.521 229.579 424.199 235.197 424.382 235.888C424.382 235.888 427.538 246.237 432.796 249.744C438.053 253.25 443.493 252.012 448.762 246.407C454.031 240.802 457.358 233.061 459.811 230.453C462.263 227.844 464.898 225.369 464.024 219.534C463.15 213.698 458.585 213.043 458.585 213.043" stroke="#263238" stroke-linecap="round" stroke-linejoin="round"/>
<path d="M427.356 234.141C427.356 234.141 419.294 236.24 417.011 236.422C414.729 236.604 414.377 236.944 412.98 235.888C411.584 234.833 405.076 231.035 402.053 227.48C399.03 223.926 396.783 223.27 397.136 225.2C397.488 227.129 396.783 228.524 398.896 229.931C401.009 231.339 403.097 235.197 403.097 236.774C403.097 238.351 402.927 238.873 398.544 240.414C394.161 241.955 384.156 243.92 385.188 245.145C386.22 246.371 388.345 246.723 390.628 246.553C392.91 246.383 402.381 244.976 403.073 245.497C403.302 245.731 403.472 246.015 403.572 246.326C403.672 246.637 403.697 246.967 403.646 247.29C403.596 247.613 403.47 247.92 403.28 248.186C403.09 248.451 402.84 248.669 402.551 248.822C400.972 249.877 395.363 249.877 392.024 250.229C388.685 250.581 388.515 251.442 389.923 252.158C392.185 253.001 394.59 253.393 397.002 253.311C399.807 253.311 403.073 253.032 401.677 253.905C400.28 254.779 398.338 254.961 394.829 255.482C391.32 256.004 390.093 254.439 390.628 255.834C391.162 257.229 395.363 257.242 400.62 257.047C405.406 256.803 410.053 255.36 414.134 252.85C417.643 250.739 430.44 247.584 431.326 246.893C432.213 246.201 433.597 242.149 432.723 237.247C431.849 232.346 427.356 234.141 427.356 234.141Z" fill="white" stroke="#263238" stroke-linecap="round" stroke-linejoin="round"/>
<path d="M441.222 213.625C444.64 210.798 448.343 208.334 452.271 206.273" stroke="#263238" stroke-linecap="round" stroke-linejoin="round"/>
<path d="M392.801 246.65C392.801 246.65 402.782 245.509 403.789 245.364C404.797 245.218 406.643 246.359 405.781 247.645C404.919 248.931 404.494 248.64 400.924 249.355C397.381 249.893 393.798 250.133 390.215 250.071" fill="white"/>
<path d="M392.801 246.65C392.801 246.65 402.782 245.509 403.789 245.364C404.797 245.218 406.643 246.359 405.781 247.645C404.919 248.931 404.494 248.64 400.924 249.355C397.381 249.893 393.798 250.133 390.215 250.071" stroke="#263238" stroke-linecap="round" stroke-linejoin="round"/>
<path d="M393.942 253.493C393.942 253.493 405.064 252.777 404.785 253.638C404.506 254.5 403.789 255.628 399.795 255.919C395.8 256.21 391.296 256.489 387.519 254.633" fill="white"/>
<path d="M393.942 253.493C393.942 253.493 405.064 252.777 404.785 253.638C404.506 254.5 403.789 255.628 399.795 255.919C395.8 256.21 391.296 256.489 387.519 254.633" stroke="#263238" stroke-linecap="round" stroke-linejoin="round"/>
<path d="M282.7 408.498C282.7 408.498 284.595 410.379 277.042 414.989C269.49 419.599 263.189 421.698 263.189 424.428C263.189 427.158 271.579 429.876 280.187 427.777C288.796 425.678 292.329 425.059 297.186 424.222C302.042 423.385 303.487 419.187 303.487 413.302C303.487 407.418 290.69 406.023 289.221 405.756C287.751 405.489 283.757 406.193 282.7 408.498Z" fill="white" stroke="#263238" stroke-linecap="round" stroke-linejoin="round"/>
<path d="M301.581 413.315C298.403 418.073 294.512 422.316 290.046 425.896C283.538 430.749 282.701 433.018 286.064 434.28C289.427 435.541 299.067 435.954 305.575 433.442C312.083 430.931 315.228 427.158 317.11 425.471C318.992 423.785 320.048 424.841 320.048 418.131C320.048 411.422 312.909 409.117 307.045 409.541C301.18 409.966 301.581 413.315 301.581 413.315Z" fill="white" stroke="#263238" stroke-linecap="round" stroke-linejoin="round"/>
<path d="M275.998 276.629C275.998 276.629 277.892 314.786 278.524 325.9C279.155 337.013 283.769 378.725 284.595 388.576C285.42 398.428 285.432 401.364 285.432 401.364C285.432 401.364 281.656 404.094 281.656 404.725C281.656 405.356 281.231 411.216 281.231 411.216C284.018 412.749 286.977 413.947 290.046 414.783C293.418 415.542 296.891 415.755 300.33 415.414C300.33 415.414 307.251 417.719 313.128 419.393C319.004 421.067 321.311 420.23 321.311 420.23C321.311 420.23 322.987 411.847 323.399 409.117C323.812 406.387 330.952 377.463 330.952 364.226C330.952 350.99 329.276 344.936 326.763 337.183C324.249 329.43 330.114 301.744 332.214 291.686C333.418 286.075 334.33 280.406 334.946 274.7C334.946 274.7 316.904 283.97 275.998 276.629Z" fill="#263238" stroke="#263238" stroke-linecap="round" stroke-linejoin="round"/>
<path d="M299.492 289.453C299.492 289.453 298.436 317.358 298.436 328.023C298.436 338.687 301.168 351.718 302.419 364.299C303.669 376.881 302.843 397.421 301.374 400.988C299.905 404.555 298.861 405.841 299.067 408.534C299.274 411.228 299.492 415.025 299.492 415.025" stroke="white" stroke-linecap="round" stroke-linejoin="round"/>
<path d="M296.129 127.144C296.129 127.144 294.915 123.371 292.972 124.839C291.03 126.307 292.353 129.037 294.029 131.767C295.704 134.497 297.586 135.115 297.805 133.647C298.023 132.179 296.129 127.144 296.129 127.144Z" fill="white" stroke="#263238" stroke-linecap="round" stroke-linejoin="round"/>
<path d="M296.129 128.831L294.029 122.764C294.029 122.764 285.226 119.197 287.958 110.389C290.69 101.581 311.67 93.6221 317.329 93.6221C322.987 93.6221 333.902 101.169 335.796 109.977C337.69 118.785 331.389 126.744 331.389 126.744C331.389 126.744 328.657 134.497 326.532 134.084C324.407 133.672 325.682 127.581 322.962 122.764C320.242 117.948 318.555 115.485 315.617 116.698C312.678 117.911 300.512 121.551 299.468 123.189C298.424 124.827 296.554 129.874 296.129 128.831Z" fill="#263238" stroke="#263238" stroke-linecap="round" stroke-linejoin="round"/>
<path d="M338.722 215.202L339.766 220.65L326.763 240.778L329.701 245.388C335.87 241.278 341.506 236.42 346.481 230.926C354.87 221.705 355.708 220.444 355.708 216.67C355.708 212.897 352.782 206.394 352.782 206.394C352.782 206.394 346.906 215.202 338.722 215.202Z" fill="white" stroke="#263238" stroke-linecap="round" stroke-linejoin="round"/>
<path d="M267.596 203.046C267.596 203.046 263.395 213.103 264.245 216.246C265.095 219.388 279.556 237.842 279.556 237.842L282.069 230.926C282.069 230.926 276.618 219.606 276.618 215.833C276.618 212.06 278.512 204.72 278.512 204.72L267.596 203.046Z" stroke="#263238" stroke-linecap="round" stroke-linejoin="round"/>
<path d="M304.738 153.144C304.738 153.144 286.695 160.06 283.332 161.115C279.969 162.171 277.662 162.79 277.455 163.833C277.249 164.876 267.183 190.67 265.314 194.237C263.444 197.804 260.906 201.784 260.906 201.784C263.35 203.311 265.871 204.712 268.458 205.982C271.098 207.134 273.837 208.044 276.642 208.699L277.856 223.173L265.472 277.673C265.472 277.673 290.228 284.588 306.753 283.97C317.274 283.611 327.677 281.631 337.593 278.097C340.75 277.042 345.57 275.161 345.57 275.161L329.786 215.833L331 207.025L331.838 215.627C331.838 215.627 340.228 217.507 345.048 216.246C349.868 214.984 355.975 210.179 355.975 210.179L340.446 161.758L311.5 153.787L304.738 153.144Z" fill="#B2DBC3" stroke="#263238" stroke-linecap="round" stroke-linejoin="round"/>
<path d="M325.123 157.476L311.658 153.775L304.738 153.144L298.509 155.571C298.388 158.871 298.23 164.488 298.23 171.222C298.23 182.141 299.444 191.774 302.637 189.882C305.83 187.989 320.85 167.667 323.399 161.977C324.088 160.523 324.665 159.018 325.123 157.476Z" fill="#B2DBC3" stroke="#263238" stroke-linecap="round" stroke-linejoin="round"/>
<path d="M331.17 207.025C330.745 206.612 328.863 188.571 328.863 188.571" stroke="#263238" stroke-linecap="round" stroke-linejoin="round"/>
<path d="M276.617 208.699C276.617 208.699 275.148 201.577 275.573 198.848C275.998 196.118 278.924 179.982 278.924 179.982" stroke="#263238" stroke-linecap="round" stroke-linejoin="round"/>
<path d="M283.757 238.897C283.757 238.897 274.104 242.04 274.104 242.67C274.104 243.301 273.886 246.225 273.886 246.225L283.757 241.615V238.897Z" stroke="#263238" stroke-linecap="round" stroke-linejoin="round"/>
<path d="M309.351 240.365L308.926 243.083L329.907 248.53L330.951 246.444L309.351 240.365Z" stroke="#263238" stroke-linecap="round" stroke-linejoin="round"/>
<path d="M316.272 198.678C315.986 198.678 315.711 198.564 315.508 198.362C315.305 198.159 315.192 197.884 315.192 197.598C315.192 193.958 317.001 185.174 318.761 176.681C320.158 169.924 321.481 163.53 321.481 161.528C321.535 160.425 321.353 159.323 320.947 158.295C320.54 157.268 319.92 156.339 319.125 155.571C316.612 153.241 312.144 152.295 305.855 152.756C292.729 153.727 291.77 183.087 291.758 183.366C291.752 183.649 291.635 183.917 291.433 184.114C291.231 184.312 290.96 184.422 290.678 184.422C290.536 184.417 290.396 184.385 290.267 184.326C290.137 184.267 290.021 184.184 289.924 184.08C289.827 183.977 289.751 183.855 289.702 183.722C289.652 183.589 289.629 183.448 289.633 183.306C289.633 182.02 290.665 151.761 305.733 150.548C312.654 150.051 317.668 151.179 320.631 153.945C321.64 154.916 322.434 156.089 322.959 157.388C323.484 158.686 323.729 160.08 323.679 161.479C323.679 163.7 322.404 169.899 320.922 177.07C319.259 185.065 317.389 194.128 317.389 197.549C317.396 197.698 317.372 197.847 317.318 197.986C317.265 198.125 317.183 198.252 317.078 198.358C316.973 198.464 316.847 198.547 316.709 198.602C316.57 198.657 316.421 198.683 316.272 198.678Z" fill="#263238" stroke="#263238" stroke-linecap="round" stroke-linejoin="round"/>
<path d="M302.419 146.653C302.419 146.653 302.419 152.72 302.212 153.933C302.006 155.146 302.212 160.436 302.212 167.57C302.212 174.704 303.426 179.508 305.15 177.834C306.875 176.16 317.948 161.273 318.579 158.337C318.95 156.687 319.161 155.005 319.21 153.314L320.048 144.918C320.048 144.918 307.045 148.692 301.581 147.017" fill="white"/>
<path d="M302.419 146.653C302.419 146.653 302.419 152.72 302.212 153.933C302.006 155.146 302.212 160.436 302.212 167.57C302.212 174.704 303.426 179.508 305.15 177.834C306.875 176.16 317.948 161.273 318.579 158.337C318.95 156.687 319.161 155.005 319.21 153.314L320.048 144.918C320.048 144.918 307.045 148.692 301.581 147.017" stroke="#263238" stroke-linecap="round" stroke-linejoin="round"/>
<path d="M324.031 134.072C325.123 141.355 325.404 148.736 324.868 156.08C324.031 168.868 322.513 174.862 318.798 176.706C315.082 178.55 319.878 180.637 325.536 180.843C331.194 181.049 339.596 180.212 341.065 163.445C342.535 146.678 330.369 135.77 329.312 133.672C329.042 133.184 328.637 132.784 328.147 132.52C327.656 132.255 327.099 132.137 326.543 132.179C325.987 132.222 325.455 132.422 325.009 132.758C324.564 133.093 324.224 133.549 324.031 134.072Z" fill="#263238" stroke="#263238" stroke-linecap="round" stroke-linejoin="round"/>
<path d="M283.125 198.047H283.04C282.893 198.038 282.749 197.999 282.618 197.932C282.487 197.865 282.37 197.772 282.277 197.658C282.183 197.544 282.114 197.412 282.075 197.27C282.035 197.128 282.025 196.98 282.045 196.834C282.045 196.239 283.259 182.202 290.678 182.202C298.096 182.202 298.266 195.705 298.266 196.288C298.266 196.574 298.152 196.849 297.95 197.051C297.747 197.254 297.472 197.367 297.186 197.367C296.899 197.367 296.624 197.254 296.421 197.051C296.219 196.849 296.105 196.574 296.105 196.288C296.105 196.166 295.947 184.374 290.69 184.374C286.173 184.374 284.485 193.485 284.218 197.003C284.206 197.285 284.085 197.55 283.882 197.744C283.678 197.939 283.407 198.047 283.125 198.047Z" fill="#263238"/>
<path d="M283.125 196.13C283.125 196.13 283.125 206.612 283.538 208.699C283.951 210.786 289.208 215.202 295.498 217.932" stroke="#263238" stroke-width="2" stroke-linecap="round" stroke-linejoin="round"/>
<path d="M296.761 194.82C296.761 194.82 297.173 205.302 295.085 209.912C292.997 214.523 286.695 216.416 283.963 217.459" stroke="#263238" stroke-width="2" stroke-linecap="round" stroke-linejoin="round"/>
<path d="M298.436 218.345C298.398 217.87 298.183 217.428 297.833 217.105C297.483 216.783 297.024 216.603 296.548 216.603C296.072 216.603 295.613 216.783 295.263 217.105C294.914 217.428 294.698 217.87 294.66 218.345C294.639 218.605 294.672 218.867 294.758 219.114C294.843 219.361 294.979 219.588 295.156 219.78C295.334 219.972 295.549 220.125 295.788 220.23C296.028 220.335 296.287 220.389 296.548 220.389C296.81 220.389 297.068 220.335 297.308 220.23C297.547 220.125 297.763 219.972 297.94 219.78C298.117 219.588 298.253 219.361 298.338 219.114C298.424 218.867 298.457 218.605 298.436 218.345Z" fill="white" stroke="#263238" stroke-linecap="round" stroke-linejoin="round"/>
<path d="M285.432 217.932C285.435 217.557 285.326 217.19 285.119 216.877C284.912 216.565 284.617 216.32 284.272 216.175C283.926 216.03 283.544 215.991 283.176 216.062C282.808 216.134 282.469 216.313 282.203 216.577C281.937 216.842 281.756 217.179 281.681 217.546C281.607 217.914 281.644 218.295 281.787 218.642C281.93 218.988 282.173 219.284 282.485 219.493C282.796 219.701 283.163 219.813 283.538 219.813C284.038 219.813 284.518 219.615 284.873 219.263C285.228 218.91 285.429 218.432 285.432 217.932Z" fill="white" stroke="#263238" stroke-linecap="round" stroke-linejoin="round"/>
<path d="M322.562 201.577C322.564 200.29 322.184 199.031 321.47 197.96C320.756 196.889 319.739 196.053 318.55 195.56C317.36 195.066 316.051 194.936 314.787 195.187C313.523 195.437 312.363 196.057 311.452 196.967C310.541 197.877 309.921 199.037 309.67 200.3C309.419 201.562 309.549 202.871 310.043 204.06C310.537 205.248 311.373 206.264 312.446 206.977C313.518 207.691 314.778 208.071 316.066 208.068C317.788 208.065 319.438 207.38 320.655 206.164C321.873 204.947 322.558 203.298 322.562 201.577Z" fill="white" stroke="#263238" stroke-linecap="round" stroke-linejoin="round"/>
<path d="M319.623 201.577C319.623 200.871 319.414 200.181 319.021 199.594C318.628 199.008 318.07 198.55 317.417 198.281C316.764 198.011 316.046 197.941 315.353 198.08C314.66 198.219 314.024 198.559 313.525 199.06C313.026 199.56 312.687 200.196 312.551 200.889C312.415 201.582 312.487 202.299 312.759 202.951C313.031 203.602 313.491 204.159 314.079 204.549C314.668 204.94 315.359 205.147 316.066 205.144C317.01 205.141 317.915 204.764 318.582 204.095C319.249 203.427 319.623 202.521 319.623 201.577Z" fill="white" stroke="#263238" stroke-linecap="round" stroke-linejoin="round"/>
<path d="M319.623 112.476C319.623 112.476 301.374 119.598 299.067 120.811C298.074 121.411 297.02 121.903 295.923 122.279C295.923 122.279 296.967 138.209 297.392 142.407C297.817 146.605 304.519 150.584 310.396 150.378C316.272 150.172 321.092 147.017 322.149 145.137C323.205 143.256 326.131 137.59 326.131 137.59C326.131 137.59 333.052 136.377 333.416 130.25C333.78 124.123 331.741 125.397 329.434 126.683C327.127 127.969 325.864 128.782 325.864 128.782C326.313 126.558 325.937 124.247 324.808 122.279C322.987 119.185 320.048 115.412 319.623 112.476Z" fill="white" stroke="#263238" stroke-linecap="round" stroke-linejoin="round"/>
<path d="M304.738 131.973C304.738 131.973 306.413 134.485 307.882 134.278" stroke="#263238" stroke-linecap="round" stroke-linejoin="round"/>
<path d="M304.106 135.746C304.106 135.746 307.664 139.107 313.82 136.377" stroke="#263238" stroke-linecap="round" stroke-linejoin="round"/>
<path d="M313.127 126.938C313.127 126.938 317.426 125.057 319.842 128.406" stroke="#263238" stroke-width="1.5" stroke-linecap="round" stroke-linejoin="round"/>
<path d="M304.738 126.526C304.738 126.526 301.374 124.427 298.861 126.101" stroke="#263238" stroke-width="1.5" stroke-linecap="round" stroke-linejoin="round"/>
<path d="M307.202 125.737C307.205 126.909 306.859 128.055 306.209 129.031C305.559 130.006 304.633 130.767 303.55 131.217C302.467 131.666 301.275 131.785 300.124 131.557C298.974 131.329 297.917 130.764 297.088 129.936C296.258 129.107 295.694 128.051 295.465 126.901C295.237 125.752 295.355 124.56 295.805 123.478C296.255 122.395 297.017 121.471 297.993 120.821C298.969 120.171 300.116 119.826 301.289 119.828C302.857 119.832 304.359 120.455 305.467 121.562C306.575 122.67 307.199 124.171 307.202 125.737Z" stroke="#263238" stroke-linecap="round" stroke-linejoin="round"/>
<path d="M321.954 127.399C321.957 128.571 321.611 129.716 320.962 130.692C320.312 131.667 319.388 132.428 318.305 132.878C317.223 133.328 316.031 133.447 314.881 133.22C313.731 132.992 312.674 132.43 311.844 131.602C311.014 130.774 310.449 129.72 310.219 128.571C309.989 127.422 310.106 126.231 310.554 125.148C311.002 124.066 311.762 123.14 312.736 122.489C313.711 121.838 314.857 121.49 316.029 121.49C317.598 121.494 319.101 122.117 320.211 123.224C321.321 124.331 321.948 125.832 321.954 127.399V127.399Z" stroke="#263238" stroke-linecap="round" stroke-linejoin="round"/>
<path d="M307.202 125.737C307.626 125.593 308.08 125.566 308.518 125.658C308.956 125.75 309.361 125.957 309.691 126.259" stroke="#263238" stroke-linecap="round" stroke-linejoin="round"/>
<path d="M322.161 128.333L327.977 127.508" stroke="#263238" stroke-linecap="round" stroke-linejoin="round"/>
<path d="M75.491 410.027C73.8827 413.44 71.9039 416.666 69.5902 419.648C66.0812 423.955 65.1949 427.024 69.0074 429.694C72.8198 432.363 79.7649 431.95 83.2617 427.643C86.7585 423.336 92.3922 411.458 92.3922 411.458C92.3922 411.458 80.1048 407.77 75.491 410.027Z" fill="white" stroke="#263238" stroke-linecap="round" stroke-linejoin="round"/>
<path d="M118.254 412.684C118.254 412.684 124.325 420.679 127.967 424.816C131.61 428.954 138.494 430.955 142.173 430.749C145.852 430.543 151.133 429.317 147.564 422.766C143.994 416.214 136.539 409.857 136.539 409.857C136.539 409.857 128.744 409.857 123.39 409.238C118.035 408.619 117.987 411.458 118.254 412.684Z" fill="white" stroke="#263238" stroke-linecap="round" stroke-linejoin="round"/>
<path d="M78.8421 262.095C78.8421 262.095 76.4138 290 77.2394 309.63C78.065 329.261 74.4468 368.437 73.2326 378.021C72.0185 387.606 74.3375 403.427 74.4468 406.909C74.5561 410.391 74.6775 412.247 74.6775 412.247C74.6775 412.247 76.4745 411.034 83.0917 412.247C86.079 412.885 89.1114 413.291 92.1615 413.46C94.8914 408.846 97.1491 403.968 98.9001 398.901C100.879 392.35 99.7622 385.556 99.6043 382.098C99.4465 378.64 98.8758 374.927 99.2643 374.309C99.6529 373.69 107.764 315.102 108.201 302.193C108.697 293.442 109.998 284.755 112.086 276.241C112.086 276.241 115.959 294.27 116.263 301.234C116.566 308.198 115.571 364.954 116.068 376.456C116.566 387.958 115.68 391.015 114.369 393.878C113.057 396.742 113.531 398.173 114.454 400.43C115.376 402.687 118.278 412.72 118.278 412.72C118.278 412.72 133.079 413.545 135.082 412.514C137.086 411.483 137.863 410.476 137.826 409.857C137.79 409.238 144.953 394.485 144.273 388.346C143.594 382.207 142.816 383.226 142.124 372.161C141.432 361.096 145.961 267.821 145.949 262.968C145.937 258.115 145.123 267.469 114.939 261.755C84.7551 256.041 79.7041 258.2 78.8421 262.095Z" fill="#B2DBC3" stroke="#263238" stroke-linecap="round" stroke-linejoin="round"/>
<path d="M119.128 404.713C119.128 404.713 128.611 396.511 136.515 394.461L119.128 404.713Z" fill="white"/>
<path d="M119.128 404.713C119.128 404.713 128.611 396.511 136.515 394.461" stroke="#263238" stroke-linecap="round" stroke-linejoin="round"/>
<path d="M80.4084 400.806C80.4084 400.806 92.2586 395.067 95.6826 393.636L80.4084 400.806Z" fill="white"/>
<path d="M80.4084 400.806C80.4084 400.806 92.2586 395.067 95.6826 393.636" stroke="#263238" stroke-linecap="round" stroke-linejoin="round"/>
<path d="M100.296 110.486C100.296 110.486 97.1153 103.316 94.7598 105.779C92.4043 108.242 94.1891 111.506 97.4309 115.4C100.673 119.295 103.235 116.832 102.555 115.194C101.875 113.556 100.296 110.486 100.296 110.486Z" fill="white" stroke="#263238" stroke-linecap="round" stroke-linejoin="round"/>
<path d="M131.088 106.592C131.088 106.592 134.269 99.6278 136.867 102.952C139.465 106.276 133.88 114.429 132.508 115.861C131.136 117.293 130.25 106.434 130.25 106.434L131.088 106.592Z" fill="white" stroke="#263238" stroke-linecap="round" stroke-linejoin="round"/>
<path d="M62.0259 196.336C62.0259 196.336 61.1395 209.039 60.0589 212.315C57.8529 220.035 56.8215 228.043 56.9992 236.07C57.4242 245.691 61.2003 266.596 61.2731 272.941C61.346 279.287 59.3669 280.73 61.4917 282.368C63.6164 284.006 68.1331 288.932 69.7723 288.932C71.4114 288.932 73.9126 289.745 73.8519 288.519C73.7911 287.294 72.9898 287.488 72.2977 285.85C71.4142 283.463 70.6922 281.019 70.1365 278.534C70.6352 276.725 71.2392 274.947 71.9456 273.208C71.9456 273.208 73.4026 278.328 73.6819 279.978C73.9611 281.628 76.2438 282.223 76.1102 279.153C75.9766 276.084 75.9159 274.846 75.7702 271.57C75.6245 268.294 73.0384 265.431 71.9456 263.781C70.8529 262.131 69.9908 261.124 69.9544 260.505C69.918 259.887 73.4876 238.181 73.5969 230.599C73.7062 223.016 73.8154 216.865 74.3618 215.433C74.9082 214.001 77.6279 201.092 77.6279 201.092L62.0259 196.336Z" fill="white" stroke="#263238" stroke-linecap="round" stroke-linejoin="round"/>
<path d="M163.433 196.943C163.433 196.943 164.307 209.718 165.4 213.091C167.58 220.912 168.606 229.009 168.448 237.126C168.023 246.723 164.222 267.287 164.149 273.633C164.077 279.978 166.068 281.58 163.943 283.035C161.818 284.491 157.289 289.005 155.65 288.871C154.011 288.738 151.522 289.32 151.571 288.095C151.619 286.869 152.433 287.148 153.125 285.571C154.022 283.233 154.748 280.832 155.298 278.389C154.795 276.524 154.187 274.689 153.477 272.893C153.477 272.893 152.02 277.891 151.741 279.505C151.461 281.118 149.191 281.531 149.312 278.474C149.434 275.416 149.494 274.191 149.64 270.927C149.786 267.663 152.372 265.019 153.477 263.478C154.582 261.937 155.432 260.978 155.468 260.372C155.505 259.765 151.935 237.732 151.826 230.138C151.716 222.543 151.619 216.391 151.061 214.911C150.502 213.431 147.795 200.279 147.795 200.279L163.433 196.943Z" fill="white" stroke="#263238" stroke-linecap="round" stroke-linejoin="round"/>
<path d="M106.865 134.048C106.865 134.048 95.209 139.58 88.1669 142.65C81.1247 145.719 72.2735 149.408 72.3827 150.851C72.492 152.295 64.8792 180.964 62.4751 186.909C60.0711 192.854 57.8249 197.562 57.8249 197.562C57.8249 197.562 66.4333 203.312 72.0185 204.526C75.618 205.287 79.2716 205.766 82.946 205.957L76.3045 264.97C76.3045 264.97 89.6603 270.296 110.58 270.502C123.561 270.598 136.535 269.913 149.434 268.452C149.434 268.452 151.401 219.922 151.194 215.178C151.052 212.579 151.145 209.972 151.473 207.389C154.66 208.083 157.972 207.946 161.09 206.989C163.832 205.969 166.519 204.807 169.14 203.507C169.14 203.507 158.953 162.935 157.277 157.403C155.602 151.87 156.379 151.058 154.922 150.439C153.465 149.82 137.365 142.856 132.108 139.786C126.85 136.717 124.823 136.705 120.221 135.273C115.619 133.841 109.233 131.997 106.865 134.048Z" fill="#B2DBC3" stroke="#263238" stroke-linecap="round" stroke-linejoin="round"/>
<path d="M151.498 207.389L148.899 171.004" stroke="#263238" stroke-linecap="round" stroke-linejoin="round"/>
<path d="M83.4317 226.449L106.173 225.83C106.173 225.83 105.165 254.318 104.473 257.375C103.781 260.432 99.1672 262.495 93.2057 262.289C87.2441 262.082 83.6381 259.219 82.9581 257.788" stroke="#263238" stroke-linecap="round" stroke-linejoin="round"/>
<path d="M82.1567 230.138L106.137 229.931" stroke="#263238" stroke-linecap="round" stroke-linejoin="round"/>
<path d="M145.293 262.301C143.059 262.92 137.729 262.92 136.564 259.644C135.398 256.368 136.163 227.068 136.163 227.068L147.867 227.468" stroke="#263238" stroke-linecap="round" stroke-linejoin="round"/>
<path d="M136.066 229.519L147.2 231.157" stroke="#263238" stroke-linecap="round" stroke-linejoin="round"/>
<path d="M82.946 205.957C82.946 205.957 83.7716 177.895 83.4438 170.518" stroke="#263238" stroke-linecap="round" stroke-linejoin="round"/>
<path d="M103.392 120.314C103.392 120.314 105.165 137.299 105.238 139.168C105.311 141.036 107.387 146.132 109.354 148.801C111.321 151.47 116.821 160.072 119.007 158.422C121.192 156.772 127.348 147.563 127.943 142.443C128.538 137.324 128.829 125.24 128.829 125.24C128.829 125.24 120.852 125.652 114.806 123.602C108.759 121.551 103.392 120.314 103.392 120.314Z" fill="white" stroke="#263238" stroke-linecap="round" stroke-linejoin="round"/>
<path d="M94.8934 94.9082L99.4222 109.261C99.4222 109.261 101.122 119.913 104.182 124.208C107.241 128.503 117.963 134.667 122.831 133.429C127.7 132.192 133.443 127.69 133.225 122.777C133.006 117.863 132.01 103.522 132.144 97.9899C132.278 92.4574 130.93 81.1863 127.579 78.1167C124.228 75.0472 113.009 73.1909 104.959 76.4789C96.9089 79.7668 91.4451 85.8937 94.8934 94.9082Z" fill="#263238" stroke="#263238" stroke-linecap="round" stroke-linejoin="round"/>
<path d="M99.6772 110.486C99.6772 110.486 99.2765 110.693 100.333 106.592C101.389 102.491 104.57 100.441 104.886 98.4023C105.202 96.364 100.879 95.7331 101.353 92.6636C101.826 89.5941 106.052 87.3374 115.024 86.3062C123.997 85.2749 129.971 90.6132 129.679 93.2702C129.388 95.9273 128.586 96.3519 129.898 98.1961C131.209 100.04 131.768 103.522 131.865 105.573C131.962 107.623 133.079 114.987 131.136 117.244C129.194 119.501 127.737 119.088 125.806 117.244C123.875 115.4 123.159 112.949 118.861 112.949C114.563 112.949 113.191 114.587 112.438 116.225C111.685 117.863 110.957 119.865 108.504 119.865C106.052 119.865 104.303 117.608 102.555 115.145C101.489 113.66 100.528 112.104 99.6772 110.486Z" fill="white" stroke="#263238" stroke-linecap="round" stroke-linejoin="round"/>
<path d="M118.157 100.441C118.157 100.441 122.127 111.506 121.957 112.331C121.787 113.156 119.844 115.606 117.574 115.4C115.303 115.194 114.174 112.537 114.174 112.537" stroke="#263238" stroke-linecap="round" stroke-linejoin="round"/>
<path d="M119.274 98.9726C119.165 98.6022 119.142 98.2122 119.205 97.8315C119.269 97.4509 119.418 97.0896 119.641 96.7745C119.864 96.4595 120.155 96.1989 120.493 96.0123C120.831 95.8256 121.207 95.7178 121.593 95.6968C122.862 95.6353 124.129 95.8412 125.313 96.301C126.497 96.7609 127.571 97.4644 128.465 98.3659" stroke="#263238" stroke-width="2" stroke-linecap="round" stroke-linejoin="round"/>
<path d="M113.3 97.7593C112.714 97.324 112.039 97.0242 111.323 96.8815C110.607 96.7388 109.868 96.7569 109.16 96.9343C106.731 97.5531 103.805 101.241 103.842 101.86" stroke="#263238" stroke-width="2" stroke-linecap="round" stroke-linejoin="round"/>
<path d="M112.511 103.729C112.511 104.748 112.086 105.573 111.455 105.573C110.823 105.573 110.24 104.748 110.24 103.729C110.24 102.709 110.665 101.884 111.285 101.884C111.904 101.884 112.462 102.709 112.511 103.729Z" fill="#263238"/>
<path d="M124.373 103.11C124.373 104.129 123.948 104.954 123.329 104.954C122.71 104.954 122.115 104.129 122.115 103.11C122.115 102.091 122.54 101.266 123.159 101.266C123.778 101.266 124.325 102.091 124.373 103.11Z" fill="#263238"/>
<path d="M113.834 119.913C113.834 119.913 117.805 121.758 123.839 119.088" stroke="white" stroke-width="2" stroke-linecap="round" stroke-linejoin="round"/>
<path d="M99.2279 137.797C99.2279 137.797 105.299 158.689 111.819 172.423C118.339 186.157 123.511 195.778 123.511 195.778C123.511 195.778 133.334 162.79 133.285 152.101C133.237 141.412 133.176 140.223 133.176 140.223" stroke="#263238" stroke-linecap="round" stroke-linejoin="round"/>
<path d="M130.784 216.61H118.266L117.355 195.717H129.861L130.784 216.61Z" fill="white" stroke="#263238" stroke-linecap="round" stroke-linejoin="round"/>
<path d="M222.745 419.041C222.745 419.041 229.301 424.367 234.012 425.799C238.723 427.231 241.188 428.056 240.168 430.312C239.148 432.569 235.858 433.382 226.23 433.588C216.601 433.794 214.744 431.744 211.053 430.713C207.362 429.681 202.238 430.713 200.599 428.674C198.96 426.636 199.567 423.542 199.567 420.267C199.567 416.991 213.724 415.559 217.415 416.785C219.267 417.344 221.054 418.1 222.745 419.041Z" fill="white" stroke="#263238" stroke-linecap="round" stroke-linejoin="round"/>
<path d="M204.083 423.142C204.083 423.142 210.239 429.694 215.363 432.557C220.487 435.42 223.352 437.483 222.126 438.914C220.899 440.346 217.002 442.19 206.742 441.171C196.483 440.152 194.443 437.883 189.525 434.401C184.608 430.919 182.35 431.332 180.711 429.487C179.071 427.643 179.071 423.542 179.071 423.542L204.083 423.142Z" fill="white" stroke="#263238" stroke-linecap="round" stroke-linejoin="round"/>
<path d="M234.838 271.522C234.838 271.522 231.196 320.282 229.714 329.091C228.233 337.899 226.837 342.825 227.043 348.964C227.25 355.103 229.095 372.731 225.404 383.19C221.713 393.648 221.762 406.338 222.126 410.027C222.49 413.715 223.765 418.629 223.559 419.454C223.352 420.279 217.415 423.542 213.105 424.367C210.396 424.865 207.651 425.137 204.897 425.18C200.725 426.652 196.392 427.617 191.99 428.056C185.834 428.468 177.42 426.624 177.42 426.624C177.42 426.624 177.42 411.458 176.595 401.619C175.769 391.779 172.952 376.019 176.388 364.129C179.824 352.239 179.059 345.93 178.817 342C178.574 338.069 178.817 320.489 178.61 319.87C178.404 319.251 177.177 268.04 177.177 268.04C177.177 268.04 199.518 271.315 214.489 269.884C229.459 268.452 233.357 268.452 233.357 268.452C233.357 268.452 236.684 264.764 234.838 271.522Z" fill="#263238" stroke="#263238" stroke-linecap="round" stroke-linejoin="round"/>
<path d="M205.929 422.317C205.917 419.001 205.51 415.697 204.715 412.478C203.5 408.389 203.27 393.842 203.889 387.897C204.508 381.952 207.532 367.005 207.532 358.597C207.532 350.189 208.357 337.292 208.357 337.292" stroke="white" stroke-linecap="round" stroke-linejoin="round"/>
<path d="M248.364 332.779L225.003 332.573C223.983 332.573 223.983 317.007 223.983 317.007L248.364 332.779Z" fill="white" stroke="#263238" stroke-linecap="round" stroke-linejoin="round"/>
<path d="M198.96 274.397C198.96 274.397 222.332 275.829 235.457 273.572L230.941 163.348C230.941 163.348 227.869 158.228 219.661 155.352C211.453 152.477 201.619 156.566 198.134 160.472C194.649 164.379 197.114 273.985 197.114 273.985L198.96 274.397Z" fill="#B2DBC3" stroke="#263238" stroke-linecap="round" stroke-linejoin="round"/>
<path d="M199.979 155.353C199.979 155.353 176.813 167.036 173.328 169.087C169.844 171.137 169.686 178.501 169.686 181.996C169.686 185.49 170.706 340.568 170.706 340.568C179.475 341.14 188.278 340.242 196.75 337.911C205.105 335.726 212.967 331.971 219.916 326.846L216.019 243.459L211.648 170.312C211.648 170.312 209.001 150.026 199.979 155.353Z" fill="white" stroke="#263238" stroke-linecap="round" stroke-linejoin="round"/>
<path d="M206.949 147.77C206.949 147.77 201.619 148.389 199.36 151.41C198.037 153.192 197.064 155.209 196.495 157.354L194.443 175.796L201.412 174.158L197.927 182.348C197.927 182.348 201.412 192.6 205.31 201.201C209.207 209.803 214.95 227.42 214.95 227.42L212.279 172.314C212.279 172.314 212.279 156.335 211.065 152.902C209.851 149.468 208.588 147.77 206.949 147.77Z" fill="white" stroke="#263238" stroke-linecap="round" stroke-linejoin="round"/>
<path d="M220.28 159.041L224.384 326.021L248.364 332.779L244.879 205.557C244.879 205.557 245.498 172.799 243.447 168.262C241.395 163.724 222.951 154.54 221.106 154.782C219.26 155.025 220.28 159.041 220.28 159.041Z" fill="white" stroke="#263238" stroke-linecap="round" stroke-linejoin="round"/>
<path d="M220.28 150.645C221.773 151.009 223.169 151.692 224.373 152.647C225.576 153.602 226.557 154.807 227.25 156.178C229.302 160.679 234.632 174.619 234.632 174.619L227.869 175.432L235.045 180.552L222.332 228.293L220.899 176.621L219.685 155.316C219.685 155.316 218.228 151.871 220.28 150.645Z" fill="white" stroke="#263238" stroke-linecap="round" stroke-linejoin="round"/>
<path d="M205.31 140.806C205.31 140.806 206.135 146.751 204.897 150.026C203.658 153.302 208.794 163.554 210.846 169.899C212.898 176.245 214.95 181.377 216.176 180.758C217.403 180.139 221.713 156.178 221.507 153.096C221.3 150.014 223.352 140.806 223.352 140.806C223.352 140.806 212.073 144.081 205.31 140.806Z" fill="white" stroke="#263238" stroke-linecap="round" stroke-linejoin="round"/>
<path d="M190.91 134.557C197.367 134.557 202.602 129.093 202.602 122.352C202.602 115.611 197.367 110.147 190.91 110.147C184.452 110.147 179.217 115.611 179.217 122.352C179.217 129.093 184.452 134.557 190.91 134.557Z" fill="#263238" stroke="#263238" stroke-linecap="round" stroke-linejoin="round"/>
<path d="M196.908 128.091C196.908 128.091 194.856 122.765 192.391 124.815C189.926 126.865 192.391 131.366 194.236 134.036C196.082 136.705 199.567 135.467 199.166 132.822C198.835 131.077 198.057 129.447 196.908 128.091Z" fill="white" stroke="#263238" stroke-linecap="round" stroke-linejoin="round"/>
<path d="M228.646 124.779C228.646 124.779 229.678 119.659 231.074 123.141C231.692 124.505 231.977 125.996 231.905 127.491C231.833 128.987 231.407 130.444 230.661 131.743C229.447 133.793 229.641 133.587 229.229 131.743C228.906 129.434 228.711 127.109 228.646 124.779Z" fill="white" stroke="#263238" stroke-linecap="round" stroke-linejoin="round"/>
<path d="M194.03 118.227C194.03 118.227 197.927 137.069 200.392 141.582C202.857 146.095 211.053 153.715 218.435 150.597C225.817 147.478 229.921 141.788 229.921 134.824C229.921 127.86 230.941 119.052 229.714 111.457C229.095 107.999 227.314 104.855 224.665 102.545C222.016 100.236 218.657 98.8982 215.144 98.7542C208.576 98.5479 198.328 102.236 196.276 108.8C195.212 111.859 194.46 115.017 194.03 118.227Z" fill="white" stroke="#263238" stroke-linecap="round" stroke-linejoin="round"/>
<path d="M194.236 125.191C194.236 125.191 205.722 120.678 213.105 115.145C220.487 109.613 222.745 105.524 222.745 105.524C222.745 105.524 226.23 114.939 227.662 118.021C229.095 121.102 230.321 124.572 230.321 124.572C230.321 124.572 232.58 120.678 232.58 112.44C232.58 104.202 230.321 97.6866 221.652 93.3795C212.983 89.0725 198.899 91.7416 192.512 97.8928C186.126 104.044 187.389 114.078 189.028 117.972C190.311 120.675 192.076 123.121 194.236 125.191Z" fill="#263238" stroke="#263238" stroke-linecap="round" stroke-linejoin="round"/>
<path d="M219.661 117.608C219.661 117.608 218.447 117.815 218.447 121.503C218.447 125.191 219.661 131.33 219.467 132.155C219.273 132.98 217.038 135.431 215.581 133.999" stroke="#263238" stroke-linecap="round" stroke-linejoin="round"/>
<path d="M210.433 137.688C210.433 137.688 215.764 139.944 222.575 135.843" stroke="#263238" stroke-linecap="round" stroke-linejoin="round"/>
<path d="M220.487 117.171C220.487 117.171 224.809 115.521 227.662 117.996" stroke="#263238" stroke-linecap="round" stroke-linejoin="round"/>
<path d="M213.311 118.021C211.434 117.464 209.452 117.359 207.528 117.715C205.603 118.072 203.79 118.879 202.238 120.071" stroke="#263238" stroke-linecap="round" stroke-linejoin="round"/>
<path d="M210.433 123.953C210.433 125.167 209.936 126.21 209.316 126.21C208.697 126.21 208.187 125.203 208.187 123.953C208.187 122.704 208.685 121.709 209.316 121.709C209.948 121.709 210.433 122.716 210.433 123.953Z" fill="#263238"/>
<path d="M223.789 123.141C223.789 124.354 223.279 125.397 222.66 125.397C222.041 125.397 221.531 124.39 221.531 123.141C221.531 121.891 222.041 120.884 222.66 120.884C223.279 120.884 223.789 121.891 223.789 123.141Z" fill="#263238"/>
<path d="M236.89 206.164L233.248 200.219C232.215 198.581 227.505 199.2 225.246 199.2C224.073 199.322 222.943 199.714 221.947 200.345C220.95 200.977 220.114 201.831 219.503 202.839C218.69 204.477 214.999 207.146 216.431 208.784C217.864 210.422 221.762 209.391 222.381 209.803C223 210.216 228.124 213.698 229.969 214.317C230.951 214.677 232 214.814 233.041 214.717L236.89 206.164Z" stroke="#263238" stroke-linecap="round" stroke-linejoin="round"/>
<path d="M242.427 167.036C244.489 167.987 246.334 169.35 247.85 171.04C249.366 172.73 250.52 174.712 251.241 176.864C253.5 184.034 261.076 231.775 259.437 236.313C257.798 240.851 253.706 244.296 246.531 241.845C239.355 239.395 228.318 227.699 228.318 227.699L236.926 206.188L243.689 209.67L242.257 190.416" fill="white"/>
<path d="M242.427 167.036C244.489 167.987 246.334 169.35 247.85 171.04C249.366 172.73 250.52 174.712 251.241 176.864C253.5 184.034 261.076 231.775 259.437 236.313C257.798 240.851 253.706 244.296 246.531 241.845C239.355 239.395 228.318 227.699 228.318 227.699L236.926 206.188L243.689 209.67L242.257 190.416" stroke="#263238" stroke-linecap="round" stroke-linejoin="round"/>
<path d="M243.653 209.646C243.653 209.646 254.52 216.003 255.552 218.26" stroke="#263238" stroke-linecap="round" stroke-linejoin="round"/>
<path d="M229.909 180.964H190.339V236.289H229.909V180.964Z" fill="#263238" stroke="#263238" stroke-linecap="round" stroke-linejoin="round"/>
<path d="M208.187 219.485C208.187 219.485 215.764 215.384 218.022 213.128C220.28 210.871 220.693 210.701 221.919 210.701C224.937 210.7 227.951 210.494 230.941 210.082C232.155 209.67 231.56 212.509 230.941 213.152C230.321 213.795 226.436 214.596 226.436 214.596C226.436 214.596 232.993 213.977 233.199 216.027C233.346 216.615 233.327 217.233 233.145 217.811C232.963 218.389 232.624 218.905 232.167 219.303L231.56 219.922C231.56 219.922 232.167 224.217 231.56 226.267C230.953 228.318 229.714 228.936 227.043 229.337C223.478 229.564 219.899 229.361 216.383 228.73C214.331 228.318 207.362 229.749 207.362 229.749L208.187 219.485Z" fill="white" stroke="#263238" stroke-linecap="round" stroke-linejoin="round"/>
<path d="M180.917 165.398C180.917 165.398 168.775 168.055 166.76 169.281C164.744 170.506 157.945 219.279 156.512 227.517C155.08 235.755 169.225 237.356 173.511 238.994C177.797 240.632 209.219 243.047 209.219 243.047L209.632 217.641L187.898 212.109L187.692 177.07" fill="white"/>
<path d="M180.917 165.398C180.917 165.398 168.775 168.055 166.76 169.281C164.744 170.506 157.945 219.279 156.512 227.517C155.08 235.755 169.225 237.356 173.511 238.994C177.797 240.632 209.219 243.047 209.219 243.047L209.632 217.641L187.898 212.109L187.692 177.07" stroke="#263238" stroke-linecap="round" stroke-linejoin="round"/>
<path d="M187.886 212.109C187.886 212.109 180.298 208.627 175.38 210.471C170.463 212.315 166.359 221.742 166.359 221.742" stroke="#263238" stroke-linecap="round" stroke-linejoin="round"/>
<path d="M179.472 209.646C179.472 209.646 172.296 209.233 168.812 210.677C166.668 211.583 164.771 212.984 163.275 214.766" stroke="#263238" stroke-linecap="round" stroke-linejoin="round"/>
<path d="M218.435 179.12H204.496V183.633H218.435V179.12Z" fill="white" stroke="#263238" stroke-linecap="round" stroke-linejoin="round"/>
</svg>
