<svg width="100" height="100" viewBox="0 0 100 100" fill="none" xmlns="http://www.w3.org/2000/svg">
<path d="M50 0C22.4308 0 0 22.4288 0 50C0 77.5712 22.4308 100 50 100C77.5692 100 100 77.5712 100 50C100 22.4288 77.5692 0 50 0ZM77.875 33.325L47.1058 67.9404C46.3481 68.7923 45.2923 69.2308 44.2288 69.2308C43.3846 69.2308 42.5365 68.9538 41.8269 68.3885L22.5962 53.0038C20.9385 51.6788 20.6692 49.2577 21.9962 47.5981C23.3212 45.9385 25.7442 45.6692 27.4019 46.9962L43.7808 60.0981L72.125 28.2115C73.5327 26.6231 75.9673 26.4808 77.5538 27.8923C79.1423 29.3058 79.2865 31.7365 77.875 33.325Z" fill="#3E634F"/>
</svg>
